<?xml version="1.0" standalone="no"?>
<!DOCTYPE svg PUBLIC "-//W3C//DTD SVG 20010904//EN"
 "http://www.w3.org/TR/2001/REC-SVG-20010904/DTD/svg10.dtd">
<svg version="1.0" xmlns="http://www.w3.org/2000/svg"
 width="16.000000pt" height="16.000000pt" viewBox="0 0 16.000000 16.000000"
 preserveAspectRatio="xMidYMid meet">
<metadata>
Created by potrace 1.11, written by Peter Selinger 2001-2013
</metadata>
<g transform="translate(0.000000,16.000000) scale(0.001067,-0.001067)"
fill="#000000" stroke="none">
<path d="M11567 14963 c-1 -1 -40 -4 -85 -8 -46 -4 -92 -8 -101 -10 -10 -2
-42 -6 -72 -10 -30 -4 -57 -9 -60 -11 -3 -2 -21 -6 -40 -9 -55 -9 -284 -74
-378 -107 -128 -45 -276 -124 -611 -326 -126 -76 -288 -185 -325 -219 -54 -48
-159 -135 -238 -197 -48 -37 -98 -78 -111 -89 -13 -12 -55 -50 -92 -83 -183
-164 -360 -339 -466 -463 -90 -104 -146 -161 -158 -161 -18 0 -90 89 -96 120
-9 47 -88 241 -129 318 -36 66 -71 103 -144 154 -90 63 -231 84 -441 64 -146
-13 -176 -18 -253 -37 -100 -25 -159 -51 -298 -134 -138 -81 -221 -142 -216
-158 4 -15 43 -34 79 -41 15 -2 54 -18 85 -34 80 -42 187 -75 238 -74 58 2
119 27 185 78 58 45 163 104 185 104 21 0 33 -23 39 -70 12 -104 19 -348 21
-695 1 -318 4 -377 18 -418 15 -42 17 -99 17 -445 1 -379 -1 -443 -15 -557
-15 -123 -27 -236 -30 -300 -8 -115 -25 -713 -28 -925 -2 -131 -5 -160 -20
-183 -19 -30 -77 -70 -193 -133 -188 -103 -299 -177 -399 -268 -45 -41 -105
-93 -209 -181 -158 -133 -257 -248 -348 -405 -149 -257 -241 -480 -307 -745
-58 -235 -70 -306 -75 -468 -3 -68 -9 -105 -20 -122 -22 -34 -21 -40 20 -77
20 -18 62 -71 94 -118 32 -47 65 -92 74 -99 9 -7 16 -22 16 -32 0 -20 149
-169 197 -199 42 -25 194 -88 313 -130 101 -36 107 -37 150 -24 73 22 200 40
350 50 60 3 122 14 168 30 89 30 123 30 148 3 18 -20 19 -43 20 -458 1 -240 5
-503 9 -586 8 -186 8 -374 -5 -975 0 -25 2 -56 6 -70 3 -14 7 -149 9 -300 1
-151 7 -304 13 -340 19 -111 25 -242 28 -650 2 -217 6 -647 8 -955 l5 -560 36
-45 c20 -25 52 -56 73 -70 56 -38 71 -50 142 -116 61 -58 131 -101 190 -119
14 -4 52 -21 84 -37 75 -37 163 -43 263 -16 37 10 93 17 125 16 l56 -2 59 59
c103 105 121 174 99 365 -4 41 -10 217 -12 390 -2 173 -5 376 -8 450 -3 74 -8
263 -11 419 -3 156 -7 304 -10 330 -5 55 -13 210 -30 561 -8 169 -19 943 -17
1195 1 96 -3 459 -14 1220 -7 497 -7 483 1 565 4 41 8 170 9 285 2 164 6 218
18 246 14 32 40 72 143 219 32 46 289 404 297 415 31 39 92 126 207 295 73
107 177 254 232 325 55 72 116 158 135 193 19 34 41 62 49 62 36 0 126 -165
183 -335 51 -151 69 -213 88 -300 20 -91 74 -304 109 -425 59 -208 160 -649
200 -875 5 -30 11 -60 20 -105 3 -14 10 -52 15 -85 5 -33 12 -69 14 -80 2 -11
11 -63 20 -115 27 -155 43 -251 51 -290 3 -13 7 -42 10 -65 3 -22 8 -47 10
-55 2 -8 7 -31 10 -50 15 -94 39 -216 62 -315 37 -161 42 -192 48 -282 1 -26
12 -83 24 -125 12 -43 24 -86 26 -96 8 -42 16 -99 21 -142 5 -56 9 -69 44
-155 25 -62 50 -149 65 -233 6 -32 10 -52 30 -152 8 -41 17 -86 20 -100 3 -14
7 -36 10 -50 2 -14 7 -38 10 -55 3 -16 7 -39 9 -50 2 -11 12 -60 21 -110 9
-49 19 -99 21 -110 4 -20 51 -268 60 -315 2 -14 7 -38 11 -55 4 -16 8 -34 9
-40 14 -67 51 -206 85 -315 71 -234 126 -421 133 -450 10 -38 170 -592 215
-740 110 -366 195 -625 227 -698 56 -124 74 -163 124 -267 59 -124 157 -337
185 -405 33 -78 157 -321 211 -415 114 -198 242 -375 344 -476 102 -100 303
-226 450 -282 95 -37 104 -40 115 -43 62 -16 189 -44 225 -49 24 -4 48 -9 51
-11 11 -7 151 -6 194 1 118 19 261 64 383 121 78 35 99 56 48 47 -38 -8 -42
16 -7 49 17 16 31 37 31 46 0 22 48 114 95 184 24 36 35 64 35 89 0 20 6 56
13 80 19 62 21 150 5 172 -11 15 -19 16 -40 8 -23 -9 -134 -98 -194 -156 -118
-114 -147 -136 -171 -130 -64 16 -154 92 -197 168 -15 26 -48 74 -74 105 -50
62 -123 165 -155 221 -103 180 -214 395 -275 536 -22 50 -78 169 -125 265
-139 288 -201 451 -361 960 -58 186 -115 380 -142 485 -24 93 -104 353 -144
465 -28 80 -53 153 -55 162 -2 9 -13 50 -24 90 -11 40 -25 100 -30 133 -6 33
-13 69 -15 80 -5 21 -96 468 -101 495 -2 8 -10 49 -18 90 -9 41 -25 134 -36
205 -37 229 -51 305 -106 556 -30 135 -57 261 -60 280 -3 19 -15 77 -27 129
-11 52 -22 106 -25 120 -2 14 -17 81 -33 150 -27 116 -37 165 -45 215 -3 21
-22 132 -29 175 -3 14 -12 63 -20 110 -8 47 -28 158 -45 247 -16 89 -33 182
-36 205 -3 24 -14 72 -25 108 -10 36 -22 83 -25 105 -3 22 -17 74 -30 115 -14
41 -39 122 -56 180 -49 169 -136 441 -199 630 -32 96 -71 224 -85 284 -15 60
-34 125 -42 145 -33 74 -68 147 -94 191 -14 25 -42 77 -63 115 -38 70 -71 120
-229 350 -107 157 -107 157 -258 317 -72 75 -153 151 -182 169 -70 44 -107 79
-107 101 0 27 14 52 193 348 88 146 167 278 176 295 9 16 18 32 21 35 3 3 11
16 19 30 57 99 129 225 159 280 19 36 62 115 95 175 146 264 189 349 254 495
39 88 239 499 339 695 52 103 124 266 167 380 90 241 118 317 121 330 2 6 8
21 13 35 63 153 196 594 219 725 3 17 9 46 14 65 5 19 12 53 15 75 4 22 9 54
11 70 3 17 11 55 18 85 30 135 -5 342 -75 441 -132 186 -313 290 -547 315 -56
6 -261 12 -265 7z m121 -275 c27 -23 -8 -224 -78 -440 -27 -84 -52 -166 -56
-183 l-6 -30 26 28 c15 15 29 27 31 27 9 0 -7 -76 -33 -155 -14 -44 -27 -85
-28 -91 -8 -45 -82 -240 -127 -335 -30 -63 -82 -175 -116 -251 -63 -140 -89
-189 -180 -341 -29 -48 -68 -125 -86 -170 -18 -45 -60 -134 -94 -197 -33 -63
-130 -252 -215 -420 -85 -168 -170 -334 -190 -368 -20 -35 -36 -66 -36 -68 0
-3 -17 -33 -39 -67 -21 -34 -64 -107 -96 -162 -32 -55 -91 -154 -130 -220 -39
-66 -85 -142 -101 -170 -16 -27 -33 -58 -39 -67 -80 -138 -162 -273 -217 -355
-37 -57 -84 -133 -104 -170 -86 -159 -112 -186 -174 -176 -14 2 -50 8 -80 12
-56 9 -245 7 -289 -3 -14 -3 -49 -6 -79 -7 -58 -2 -71 7 -72 51 -10 363 -12
613 -7 818 3 95 1 190 -4 211 -8 37 -13 81 -24 221 -6 67 -9 94 -25 215 -5 39
-12 129 -15 200 -2 72 -7 140 -10 153 -2 13 -7 78 -10 145 -3 67 -7 136 -10
152 -2 17 -7 47 -10 67 -7 57 -22 117 -43 178 -21 61 -21 110 1 143 8 12 79
87 158 167 79 80 162 166 183 190 173 199 224 251 286 293 48 32 138 105 181
147 46 44 87 79 237 200 81 65 172 142 202 170 155 147 295 237 600 387 307
151 390 187 524 227 121 37 149 43 246 52 36 3 67 8 69 10 7 7 65 -7 79 -18z
m-2185 -4630 c29 -15 15 -46 -86 -194 -51 -74 -99 -145 -107 -157 -91 -136
-174 -247 -195 -261 l-25 -16 -1 82 c0 46 -3 178 -5 295 l-5 212 23 14 c14 10
62 18 123 22 55 4 101 9 103 10 9 8 159 2 175 -7z m-1465 -377 c23 -14 31
-195 17 -366 -10 -119 -10 -112 0 -290 10 -189 10 -189 0 -275 -4 -41 -9 -219
-10 -395 -2 -314 -2 -321 -26 -380 -23 -56 -29 -62 -85 -90 -34 -16 -91 -52
-128 -80 -38 -27 -125 -92 -195 -144 -128 -95 -200 -134 -448 -240 -122 -52
-123 -52 -178 -41 -115 24 -217 167 -241 338 -5 39 -6 191 -1 200 3 4 7 34 11
67 3 33 8 71 11 85 8 41 13 63 20 105 37 202 115 418 231 642 77 146 101 182
127 192 26 10 95 82 122 128 11 18 46 56 78 85 33 29 89 82 126 117 115 111
257 207 456 309 85 44 93 46 113 33z"/>
<path d="M3290 13991 c-36 -10 -127 -35 -203 -54 -76 -20 -143 -40 -150 -44
-27 -16 -207 -155 -271 -209 -56 -48 -78 -76 -117 -149 -26 -49 -69 -117 -96
-150 -26 -33 -71 -96 -99 -141 -28 -44 -72 -114 -99 -155 -26 -41 -63 -99 -83
-129 -19 -30 -66 -101 -103 -157 -37 -56 -80 -124 -94 -152 -27 -51 -61 -81
-93 -81 -12 0 -33 -26 -64 -79 -49 -83 -248 -480 -310 -616 -20 -44 -60 -132
-88 -195 -29 -63 -106 -241 -172 -395 -66 -154 -126 -287 -134 -296 -14 -16
-24 -17 -94 -6 -102 16 -147 18 -174 8 l-29 -11 29 -26 c38 -33 72 -51 125
-64 24 -6 52 -18 63 -25 22 -17 28 2 -109 -345 -78 -199 -150 -415 -170 -510
-3 -14 -16 -62 -106 -405 -42 -159 -118 -466 -123 -500 -2 -11 -10 -49 -19
-85 -15 -63 -66 -339 -72 -390 -2 -14 -6 -47 -9 -75 -4 -27 -9 -70 -11 -95 -6
-57 -7 -588 -2 -615 5 -24 15 -92 22 -155 30 -246 135 -534 233 -635 40 -42
175 -164 218 -198 22 -17 56 -69 53 -82 -2 -11 -29 -106 -48 -170 -24 -78 -21
-68 -55 -221 -13 -61 -33 -131 -44 -155 -11 -24 -27 -78 -36 -119 -10 -41 -37
-138 -61 -215 -44 -140 -89 -315 -120 -475 -9 -47 -25 -125 -36 -175 -10 -49
-26 -135 -34 -190 -9 -55 -18 -113 -21 -130 -2 -16 -6 -41 -9 -55 -2 -14 -7
-45 -10 -70 -4 -25 -8 -56 -10 -70 -5 -34 -17 -164 -30 -330 -8 -103 -13 -162
-22 -250 -10 -97 -10 -869 -1 -980 8 -96 20 -159 73 -400 53 -241 88 -348 157
-480 111 -212 229 -342 458 -507 332 -237 397 -277 470 -287 3 -1 33 -14 67
-29 70 -31 159 -45 266 -41 85 4 133 21 185 68 20 18 52 37 70 41 22 4 34 14
38 29 3 13 18 33 33 44 20 15 37 46 60 113 34 96 43 115 166 329 39 69 90 159
112 200 22 41 59 109 81 150 158 292 487 950 834 1670 375 776 775 1574 866
1725 51 87 336 518 353 535 8 8 37 45 65 82 49 65 100 115 110 106 2 -3 5
-216 6 -474 2 -416 -2 -547 -17 -674 -5 -40 -13 -142 -20 -245 -3 -38 -7 -97
-10 -130 -9 -117 -25 -388 -30 -505 -6 -146 -17 -430 -20 -510 -17 -474 -22
-1318 -11 -2080 10 -700 24 -1362 30 -1391 2 -8 6 -35 10 -61 10 -61 54 -129
107 -167 45 -33 137 -71 172 -71 12 0 34 -8 48 -18 14 -9 41 -27 60 -40 19
-12 64 -31 102 -43 37 -11 90 -31 117 -45 78 -39 143 -33 213 20 18 14 53 34
79 45 41 17 47 24 50 53 3 32 4 33 48 33 28 0 45 4 45 12 0 6 10 21 22 32 24
22 25 59 5 181 -22 131 -37 425 -32 625 1 55 1 125 1 155 -1 30 -4 228 -6 440
-2 212 -6 430 -10 485 -4 55 -8 170 -11 255 -2 85 -5 171 -7 190 -2 19 2 54 9
78 22 75 13 243 -15 307 -14 30 -42 233 -47 337 -12 264 -15 334 -19 458 -3
74 -7 196 -10 270 -9 240 -21 635 -30 970 -3 118 -8 278 -10 355 -3 77 -7 219
-10 315 -12 408 -20 534 -41 665 -45 273 -185 506 -350 582 -39 18 -72 25
-117 25 -64 0 -72 -2 -242 -70 -55 -21 -120 -47 -145 -56 -85 -31 -373 -311
-503 -487 -57 -77 -242 -368 -342 -537 -23 -38 -107 -195 -178 -332 -41 -80
-101 -194 -133 -255 -140 -268 -334 -669 -334 -692 0 -9 -3 -13 -7 -10 -9 10
-164 -267 -166 -295 0 -13 -4 -25 -7 -28 -31 -29 -200 -389 -200 -427 0 -8 -4
-11 -10 -8 -5 3 -10 1 -10 -5 0 -13 -172 -403 -181 -410 -17 -13 -89 -177 -89
-202 0 -15 -4 -28 -10 -28 -5 0 -10 -6 -10 -13 0 -7 -8 -17 -19 -24 -22 -14
-56 -76 -66 -121 -3 -18 -27 -56 -51 -84 -25 -29 -59 -77 -76 -108 -28 -51
-228 -357 -255 -390 -6 -8 -35 -46 -64 -85 -29 -38 -58 -75 -64 -81 -5 -6 -29
-32 -52 -57 -69 -75 -81 -77 -120 -22 -22 31 -132 347 -140 400 -6 43 -6 41
-39 225 -3 19 -7 105 -9 190 -2 85 -6 180 -9 210 -27 274 -27 920 -1 1140 2
19 7 67 10 105 3 39 7 86 10 105 3 19 7 60 10 90 9 99 18 173 60 460 26 173
31 205 39 246 2 12 7 39 10 60 4 22 8 46 11 54 2 8 6 33 9 55 4 22 8 51 11 65
2 14 7 36 9 50 2 14 14 72 25 130 11 58 22 116 25 130 2 14 11 57 19 95 9 39
18 84 20 100 3 17 17 86 32 155 37 172 40 188 50 285 26 226 31 246 84 303 17
18 31 44 31 58 0 13 4 24 10 24 5 0 45 73 89 163 86 175 258 485 323 582 23
33 78 110 123 170 68 92 117 167 200 307 6 9 34 51 64 94 50 72 52 78 36 90
-17 13 -17 17 10 86 16 40 48 97 71 126 24 29 60 80 80 115 21 34 58 87 82
117 46 56 67 97 76 142 2 13 20 49 39 79 19 30 46 77 60 105 14 29 92 145 172
260 169 240 236 346 298 470 74 149 97 229 112 399 2 28 10 72 16 98 15 63 7
124 -22 184 -23 46 -27 49 -86 64 -34 9 -69 21 -76 28 -15 12 -175 13 -192 0
-5 -4 -39 -14 -74 -23 -35 -9 -78 -25 -95 -35 -17 -10 -66 -28 -109 -40 -99
-27 -127 -42 -202 -104 -160 -134 -493 -513 -603 -687 -37 -59 -93 -127 -163
-200 -124 -129 -182 -204 -346 -450 -146 -219 -275 -427 -396 -640 -55 -96
-109 -188 -120 -204 -19 -27 -21 -28 -28 -9 -4 11 -6 36 -4 55 2 20 6 83 9
140 3 56 8 119 10 138 2 19 7 60 11 91 3 31 7 65 9 75 3 18 14 81 22 134 3 14
7 36 9 50 3 14 8 36 10 50 3 14 7 63 10 110 4 77 10 130 21 185 3 11 7 54 9
95 7 102 14 145 40 250 12 49 37 174 49 240 7 43 56 261 82 363 14 54 49 165
79 247 77 210 137 391 190 570 25 85 53 166 63 179 10 13 62 50 117 83 194
116 320 202 425 291 147 125 461 432 600 587 41 46 95 102 119 124 78 73 360
463 416 576 50 102 68 135 80 150 23 28 67 122 117 254 49 127 51 134 53 247
2 84 -2 127 -13 155 -8 22 -14 56 -13 76 1 29 -9 54 -41 105 -48 77 -130 168
-170 189 -86 45 -359 65 -468 35z m127 -293 c10 -12 16 -37 28 -118 25 -163
-1 -268 -128 -525 -115 -232 -257 -455 -427 -670 -133 -170 -198 -245 -335
-389 -11 -12 -64 -70 -119 -131 -138 -154 -165 -178 -183 -164 -13 12 -13 29
2 99 3 14 7 34 9 45 5 24 56 171 83 240 11 28 32 89 47 136 33 106 139 321
247 499 45 74 107 185 139 245 111 212 140 260 258 410 92 119 192 220 296
298 52 40 68 44 83 25z m-2343 -3094 c-16 -49 -41 -94 -58 -106 -8 -5 -12 -24
-15 -65 -1 -7 -9 -21 -18 -31 -27 -26 -43 -68 -43 -110 0 -21 -8 -53 -18 -72
-11 -19 -22 -55 -26 -79 -4 -25 -15 -61 -26 -80 -10 -20 -24 -61 -31 -91 -6
-30 -20 -76 -30 -102 -20 -51 -22 -58 -44 -193 -8 -49 -30 -144 -50 -210 -42
-141 -43 -145 -56 -212 -5 -28 -21 -84 -34 -124 -14 -40 -25 -90 -25 -110 0
-21 -7 -59 -16 -85 -9 -26 -14 -55 -11 -65 3 -10 -3 -33 -13 -51 -19 -37 -50
-235 -56 -367 -4 -82 -8 -100 -19 -89 -10 10 -12 113 -3 143 5 17 11 55 13 85
7 83 14 127 35 215 10 44 21 108 24 142 3 34 12 76 21 92 8 17 15 46 15 65 0
19 13 87 30 150 16 64 31 126 34 138 2 13 16 73 31 133 15 61 29 117 31 125
18 76 38 137 50 154 8 11 14 36 14 56 1 34 6 52 63 205 14 39 39 116 56 172
16 55 48 150 71 210 23 59 51 133 63 163 11 30 25 58 31 62 21 14 26 -21 10
-68z m2568 -143 c22 -3 68 -73 86 -131 10 -31 3 -138 -13 -215 -9 -44 -19 -91
-21 -105 -24 -138 -141 -384 -265 -560 -45 -63 -133 -191 -197 -285 -180 -266
-265 -383 -350 -480 -68 -78 -361 -437 -432 -530 -14 -18 -45 -56 -69 -86 -24
-30 -53 -74 -64 -99 -11 -25 -23 -52 -27 -60 -7 -15 -87 -46 -96 -37 -13 13
-11 102 3 152 13 44 14 60 4 78 -10 18 -5 40 30 137 22 63 42 122 44 130 17
65 37 148 41 165 2 11 6 31 9 45 3 14 7 34 9 45 26 137 74 282 124 377 51 96
112 258 112 297 0 35 33 109 127 279 33 61 40 89 13 57 -21 -25 -29 -17 -17
18 23 66 225 326 350 451 52 52 76 84 93 129 13 33 32 69 41 80 21 23 76 51
118 61 17 4 58 21 91 37 57 27 200 59 234 53 8 -1 18 -3 22 -3z m209 -578 c-8
-15 -10 -15 -11 -2 0 17 10 32 18 25 2 -3 -1 -13 -7 -23z m-71 -163 c-23 -45
-44 -79 -47 -76 -4 3 13 45 37 93 24 47 45 82 47 76 2 -6 -14 -48 -37 -93z
m-130 -220 c0 -5 -5 -10 -11 -10 -5 0 -7 5 -4 10 3 6 8 10 11 10 2 0 4 -4 4
-10z m-3166 -1380 c1 -114 -2 -150 -11 -150 -10 0 -13 39 -13 162 0 123 3 159
12 150 7 -7 12 -62 12 -162z m4400 -7307 c13 -57 15 -74 21 -161 3 -48 2 -99
-3 -112 -9 -23 -9 -24 -20 -4 -10 18 -24 143 -25 209 0 85 15 123 27 68z"/>
<path d="M4995 9209 c-47 -3 -98 -14 -125 -26 -70 -32 -184 -161 -235 -266
-15 -31 -33 -61 -40 -65 -8 -4 -23 -31 -34 -60 -32 -80 -31 -210 4 -394 3 -16
7 -38 9 -51 2 -13 20 -39 39 -59 19 -20 51 -64 72 -99 55 -94 143 -202 176
-217 16 -6 46 -15 67 -18 20 -3 75 -17 122 -30 47 -14 103 -27 125 -30 22 -3
55 -9 73 -14 30 -8 76 -7 232 4 25 2 65 9 90 15 98 26 132 44 164 87 17 23 48
61 68 86 44 52 111 183 129 251 11 41 11 60 -5 140 -28 140 -86 369 -102 399
-35 68 -99 156 -166 230 -27 29 -48 55 -48 59 0 6 -32 14 -100 25 -71 11 -91
14 -160 20 -41 3 -79 9 -85 13 -13 7 -167 8 -270 0z"/>
</g>
</svg>
