<svg id="Layer_1" data-name="Layer 1" xmlns="http://www.w3.org/2000/svg" viewBox="0 0 683.062 249.067"><title>emily-ruth-logo-concept-black</title><g id="landis-pick-ER-sketch-1"><path d="M516.5,141.474c.114-1.332.22-2.665.346-4,.031-.331.149-.652.189-.983.2-1.6.363-3.207.568-4.807.186-1.452.4-2.9.617-4.349.147-.986.312-1.969.489-2.951.032-.18.18-.5.235-.493.969.143,1.632-.56,2.432-.86a7.7,7.7,0,0,1,3.043-.576c.637.022,1.142-.146,1.247.679,1.025.719.913,1.8.915,2.849a24.309,24.309,0,0,0,.46,5.742,10.6,10.6,0,0,1,.062,2.148c.009.3.127.493.471.336.543-.247.525.1.529.473.017,1.854,0,3.709.081,5.56.069,1.542.267,3.078.395,4.618.1,1.255.222,2.51.277,3.767.114,2.589.183,5.179.286,7.769.06,1.486.1,2.975.245,4.454.095,1,.353,1.976.526,2.966.122.7.238,1.4.33,2.108.107.822.162,1.65.278,2.47.193,1.366.42,2.727.628,4.09.24,1.571.483,3.141.709,4.713.191,1.326.308,2.664.55,3.98.386,2.1.868,4.178,1.274,6.272.286,1.478.484,2.973.772,4.45.616,3.163,1.234,6.326,1.911,9.477.431,2.005,1.067,3.97,1.415,5.988a15.034,15.034,0,0,0,.734,2.712c.164.441.487.516.725.15.916-1.408,2.153-2.609,2.609-4.316.519-1.94,1.243-3.828,1.711-5.779.967-4.028,1.818-8.084,2.727-12.126.67-2.982,1.368-5.958,2.031-8.942.753-3.388,1.6-6.762,2.178-10.181.4-2.395.949-4.767,1.275-7.166.271-2,.754-3.942,1.084-5.921.226-1.356.6-2.687.835-4.042.273-1.565.468-3.144.695-4.717.221-1.531.443-3.061.656-4.593.052-.374.06-.754.1-1.129.065-.539.147-1.075.218-1.613.181-1.369.355-2.739.54-4.108.218-1.61.444-3.219.667-4.829a1.934,1.934,0,0,0,.076-.621,4.448,4.448,0,0,1-.014-2.6c.126-.336-.129-.48-.491-.53-.386-.054-.465-.293-.39-.738.513-3.026,1.537-5.916,2.3-8.875a27.2,27.2,0,0,0,.628-3.2,1.706,1.706,0,0,1,.811-1.21,8.318,8.318,0,0,1,1.074-.617,1.444,1.444,0,0,1,1.762.925,11.659,11.659,0,0,1,.008,2.254,20.292,20.292,0,0,1-.2,2.35,3.606,3.606,0,0,0,.2,1.6c.121.477-.342,1.135.413,1.432.018.007-.021.138-.02.211.041,2.241-.04,4.493.163,6.719a16.365,16.365,0,0,0,1.262,6.111,10.466,10.466,0,0,1,.972,2.079,14.425,14.425,0,0,1,.487,3.343,41.612,41.612,0,0,0,.679,5.191,30.487,30.487,0,0,1,.624,5.85,1.213,1.213,0,0,0,.021.5,16.987,16.987,0,0,1,.8,5.19c.186,2.313.751,4.565.9,6.889.093,1.458.24,2.922.339,4.388s.419,2.893.629,4.34c.126.869.285,1.739.329,2.614a93.411,93.411,0,0,0,1.453,10.053c.356,2.231.555,4.486.877,6.723.154,1.073.438,2.126.645,3.192.3,1.519.588,3.039.856,4.564a18.061,18.061,0,0,0,1.03,4.642,5.634,5.634,0,0,0,.531.779l.039.028a4.246,4.246,0,0,0-.044.625c.006.1.115.185.177.277.061-.053.15-.093.18-.16a6.012,6.012,0,0,0,.575-1.389,47.877,47.877,0,0,1,2.031-6.46,76.159,76.159,0,0,0,2.028-8.545c.434-2.311.514-4.66.988-6.951.462-2.234.673-4.514,1.268-6.722.467-1.733.979-3.456,1.382-5.2.281-1.221.437-2.473.6-3.717.279-2.074.466-4.162.8-6.226a35.657,35.657,0,0,0,.241-4.127c.032-.709.186-1.412.249-2.12.1-1.12.231-2.242.233-3.363a35.928,35.928,0,0,1,.691-6.114c.236-1.361.381-2.737.6-4.1.261-1.61.56-3.213.844-4.819.218-1.235.45-2.468.649-3.705a2.408,2.408,0,0,0-.008-1.009,14.747,14.747,0,0,1-.22-4.026c-.026-3.128-.114-6.26.017-9.382.191-4.535.189-9.069.253-13.6.036-2.543.317-5.082.468-7.624.107-1.8.147-3.612.281-5.413.093-1.249.3-2.491.45-3.736.015-.126.031-.252.036-.378.088-2.133.143-4.269.272-6.4.112-1.839.315-3.673.464-5.51.038-.462,0-.931.04-1.393.052-.582.161-1.159.227-1.74.093-.815-.177-1.032-.9-.666-1.125.568-2.254,1.138-3.328,1.794-2.286,1.4-4.57,2.8-6.8,4.293s-4.375,3.108-6.58,4.638c-2.033,1.41-4.126,2.736-6.136,4.177-1.6,1.147-3.127,2.4-4.669,3.626-1.706,1.358-3.392,2.742-5.088,4.113-.946.765-1.871,1.56-2.847,2.284a12.581,12.581,0,0,1-3.859,2.245,4.8,4.8,0,0,0-.867.506c-.694.384-1.274,1.058-2.2.87a.464.464,0,0,0-.355.106c-.977.927-2.259.377-3.36.7-.092.027-.22-.068-.331-.106.045-.111.059-.256.139-.328,1.185-1.064,2.371-2.128,3.573-3.173,1.231-1.071,2.492-2.108,3.719-3.183,1.64-1.437,3.253-2.9,4.889-4.345,1.291-1.136,2.6-2.251,3.9-3.376.16-.138.292-.348.476-.411,1.646-.564,2.7-1.958,4.068-2.905,1.586-1.1,3.047-2.371,4.625-3.48,2.781-1.953,5.58-3.885,8.428-5.738,2.072-1.348,4.225-2.574,6.365-3.815,1.921-1.114,3.871-2.181,5.816-3.253.364-.2.772-.322,1.155-.491a1.584,1.584,0,0,0,.952-1.361q.558-3.72,1.206-7.427c.415-2.392.821-4.787,1.328-7.16.586-2.742,1.261-5.467,1.939-8.188a9.179,9.179,0,0,0,.225-1.692,18.636,18.636,0,0,1,.451-2.466,2.334,2.334,0,0,0,.136-.48,2.6,2.6,0,0,0-.153-.581c-.144.134-.361.243-.419.407-.179.513-.3,1.048-.438,1.574L596.157,38c.113-.83.212-1.662.351-2.488a.869.869,0,0,1,.308-.437c.749.347,1.443-.171,2.193-.128a3.9,3.9,0,0,1,2.34.99,4.874,4.874,0,0,1,1.793,4.017,51.242,51.242,0,0,0,.566,5.125c.011.161.048.408.152.461.741.378.583,1.053.587,1.669.009,1.352.035,2.706-.007,4.057-.036,1.131-.222,2.258-.227,3.388a17.675,17.675,0,0,1-.227,4.222c-.171.694.217.959.967.73,1.084-.331,2.148-.723,3.234-1.044q6.022-1.784,12.053-3.538c1.485-.435,2.962-.9,4.459-1.286,2.348-.609,4.71-1.162,7.065-1.743,1.828-.451,3.654-.911,5.482-1.359a6.375,6.375,0,0,1,.709-.094l-.541.32a4.89,4.89,0,0,0-.854.527c-.182.168-.754.2-.366.69-.073.042-.146.119-.22.12-.949.016-1.416.895-2.184,1.209s-1.592.515-2.389.773a.666.666,0,0,0-.322.183c-.662.878-1.712.96-2.63,1.327-.849.34-1.646.808-2.484,1.178a17.816,17.816,0,0,1-2.1.8c-1.324.394-2.68.681-4,1.1-2.228.707-4.438,1.472-6.651,2.226-2.579.879-5.127,1.861-7.739,2.623a2.441,2.441,0,0,0-2.022,2.569c-.007,1.383.105,2.767.167,4.15a1.712,1.712,0,0,1,.03.249c-.259,2.344.142,4.681.053,7.027-.088,2.321.068,4.652-.051,6.971-.075,1.468.087,2.919.051,4.38-.02.831.189,1.665.22,2.5a11.485,11.485,0,0,1-.153,1.621,1.208,1.208,0,0,0-.047.246c.322,2.627-.424,5.238-.1,7.87.181,1.489-.006,2.994.263,4.5a14.664,14.664,0,0,1-.092,3.1c-.039.947-.1,1.894-.1,2.842-.015,2.282-.021,4.564,0,6.846.013,1.282.127,2.563.129,3.845,0,1.163-.12,2.327-.124,3.491,0,.872.122,1.744.136,2.616s-.071,1.749-.053,2.622a29.383,29.383,0,0,0,.188,3.89c.294,1.9.077,3.856.674,5.716a2.6,2.6,0,0,1,.056.628c.089,1.467.135,2.938.275,4.4.128,1.332.354,2.656.545,3.982.143.993.317,1.981.445,2.976q.513,3.984.994,7.971c.2,1.622.318,3.254.551,4.87.369,2.565.808,5.121,1.207,7.682.283,1.817.5,3.646.835,5.454.481,2.634.976,5.268,1.574,7.877.917,4,1.978,7.963,2.877,11.964.479,2.13,1.138,4.2,1.751,6.286.529,1.8.908,3.653,1.386,5.474.191.727.468,1.431.71,2.144.112.329.292.341.566.148a7.305,7.305,0,0,0,2.313-2.6c.7-1.336,1.278-2.731,1.941-4.086a23.484,23.484,0,0,1,1.313-2.423,46.2,46.2,0,0,0,3.391-7.149,38.53,38.53,0,0,0,1.3-4.331c.036-.123.068-.248.1-.372a1.4,1.4,0,0,1,.012.376c-.228.934-.474,1.864-.7,2.8-.025.1.056.232.087.349.091-.047.218-.071.265-.146a2.914,2.914,0,0,0,.411-.778c.554-2.187,1.085-4.379,1.618-6.571a2.117,2.117,0,0,0,.024-.379.487.487,0,0,0,.084-.092c.159-.306.244-.608-.056-.886l-.232.8a.993.993,0,0,1-.183.169c-.018.01-.136-.081-.13-.112a16.728,16.728,0,0,1,.387-1.965,21.9,21.9,0,0,0,.941-5.911c.071-2.549.439-5.088.567-7.636.035-.692.055-1.386.1-2.083.145-2.393.168-4.794.289-7.189.118-2.345.3-4.686.452-7.029.011-.168.034-.336.043-.5.088-1.721.14-3.444.271-5.161.114-1.5.316-3,.477-4.494.013-.126.009-.253.016-.38.086-1.678.138-3.36.27-5.034.1-1.291.317-2.573.459-3.861q.166-1.5.274-3.006c.1-1.382.15-2.768.278-4.147.1-1.123.3-2.237.436-3.357.114-.915.2-1.833.309-2.748.329-2.784.674-5.566.992-8.352.2-1.748.335-3.5.546-5.251.2-1.66.468-3.312.695-4.969.114-.83.192-1.665.307-2.5.321-2.32.665-4.636.976-6.957.206-1.536.357-3.079.558-4.615.1-.746.248-1.484.378-2.226a1.927,1.927,0,0,0,.1-.491c-.156-1.443.457-2.772.616-4.171s.516-2.794.793-4.189q.953-4.8,1.911-9.6c.4-2.01.816-4.018,1.184-6.034.209-1.144.337-2.3.5-3.455l.032-.027c.514-.3.368-.887.515-1.331a17.812,17.812,0,0,0,.454-2.208c.008-.041.046-.081.041-.119a3.539,3.539,0,0,1,.31-1.756,18.6,18.6,0,0,0,.554-1.931c.5-1.772.949-3.564,1.537-5.308.558-1.655,1.231-3.274,1.92-4.88.63-1.467,1.285-2.929,2.045-4.331a42.447,42.447,0,0,1,3.1-5.179,18.692,18.692,0,0,1,2.775-3.4c.382-.32-.041-.964.615-1.035a10.555,10.555,0,0,0,1.283-.25,7.546,7.546,0,0,1,1.4-.354,11.161,11.161,0,0,0,3.125-.341,1.078,1.078,0,0,1,.589-.026,44.2,44.2,0,0,1,4.818,1.434,6.812,6.812,0,0,1,3.9,4.37,47.59,47.59,0,0,1,1.414,5.332,13.065,13.065,0,0,1,.294,5.108c-.2,1.066-.2,2.171-.359,3.247-.327,2.15-.71,4.291-1.065,6.437-.325,1.964-.656,3.927-.96,5.894-.409,2.645-.805,5.282-1.415,7.9-.828,3.556-2.081,6.982-2.93,10.523-.526,2.195-1.141,4.367-1.508,6.6a35.654,35.654,0,0,1-1.865,6.515c-.738,2-1.438,4.024-2.193,6.022-.682,1.8-1.431,3.583-2.121,5.384-.6,1.567-1.168,3.146-1.729,4.727-.2.552-.283,1.144-.5,1.684a11.433,11.433,0,0,1-1.111,2.5,11.273,11.273,0,0,0-.959,2.716c-1,2.8-2.034,5.593-3.039,8.394-.665,1.853-1.3,3.717-1.957,5.573-.965,2.729-1.976,5.442-2.9,8.186-.812,2.425-1.525,4.882-2.28,7.326a2.228,2.228,0,0,0-.122.488c-.1,1.382-.178,2.766-.274,4.148-.076,1.087-.169,2.173-.249,3.259a1.773,1.773,0,0,0,.016.505,1.8,1.8,0,0,0,.194.4,1.3,1.3,0,0,0,.264-.245c.733-1.218,1.47-2.433,2.179-3.664.375-.652.714-1.326,1.043-2,3.331-6.869,6.923-13.84,11.543-19.951,4.838-6.4,11.914-12.872,20.135-14.2a21.3,21.3,0,0,1,4.486-.5c2.1.116,4.3.084,6.145,1.461.549.409,1.335.506,1.869.927a5.011,5.011,0,0,1,1.326,1.64c.641,1.272,1.17,2.6,1.709,3.924a2.42,2.42,0,0,1,.068.877c0,1.987.069,3.976-.02,5.959-.062,1.375-.34,2.739-.519,4.109a2.82,2.82,0,0,0-.087.964,5.594,5.594,0,0,1-.146,2.477c-.439,2.214-.832,4.438-1.267,6.653-.266,1.353-.586,2.7-.863,4.047-.3,1.476-.586,2.955-.872,4.434-.143.738.117,1.462.008,2.227-.266,1.864-.342,3.755-.557,5.627-.129,1.12-.383,2.226-.567,3.34-.238,1.444-.454,2.892-.7,4.336-.157.933-.365,1.857-.513,2.791-.111.7-.145,1.414-.244,2.118q-.4,2.86-.831,5.715c-.306,2.026-.626,4.05-.946,6.074-.19,1.2-.405,2.393-.583,3.594-.16,1.076-.25,2.162-.434,3.233a30.73,30.73,0,0,1-.417,3.532,29.046,29.046,0,0,0-.591,4.35q-.1.808-.243,1.612a14.748,14.748,0,0,0-.083,5.385,4.564,4.564,0,0,1-.176,1.228,40.431,40.431,0,0,1-.568,4.967c-.272,1.152-.01,2.32-.387,3.442-.107.317.078.731.124,1.1.026.209.043.418.064.628a2.477,2.477,0,0,0,.625-.373c1.686-1.876,3.455-3.69,5.006-5.673a71.552,71.552,0,0,1,6.841-7.267,64.377,64.377,0,0,1,7.568-6.4c.377-.265.7-.61,1.058-.9.087-.069.234-.062.354-.091a1.089,1.089,0,0,1-.129.294c-.165.191-.357.36-.529.546-.271.293-.266.293.169.57.049.031.094.168.07.2-.233.288-.473.572-.727.84-.2.211-.633.44-.6.593.2,1.087-.77,1.345-1.272,1.923-.247.285-.575.5-.83.777a1.445,1.445,0,0,0-.185.49,2.162,2.162,0,0,0,.549-.1,2.242,2.242,0,0,0,.384-.326c-.277.365-.55.733-.831,1.095a4.331,4.331,0,0,0-.833,1.089,21.152,21.152,0,0,1-2.032,3.457c-.5.915-1.2,1.728-1.674,2.654a25.364,25.364,0,0,1-2.429,3.488,13.047,13.047,0,0,0-1.358,2.523,4.867,4.867,0,0,1-.539.968c-.581.755-1.209,1.474-1.794,2.226-.171.219-.406.537-.356.749.105.446-.184.615-.4.85-.341.374-.706.726-1.042,1.1-.052.058-.023.212.009.308.011.032.168.056.225.024.294-.162.576-.343.863-.518l.028.027-4.927,4.684a13.666,13.666,0,0,1-1.52,1.584,6.028,6.028,0,0,1-4.776.928,15.529,15.529,0,0,1-5.53-2.495c-2.222-1.435-3.244-3.493-4.073-5.826a19.581,19.581,0,0,1-.778-4.817,12.111,12.111,0,0,1,.055-4.067c.122-.5-.075-1.034,0-1.588.252-1.908.348-3.836.564-5.749.2-1.743.472-3.477.708-5.215a3.765,3.765,0,0,0,.035-.631,37.473,37.473,0,0,1,.843-6.847c.236-1.57.449-3.143.689-4.711.17-1.116.371-2.228.553-3.343.242-1.484.463-2.971.723-4.451.268-1.523.562-3.042.861-4.559.549-2.789,1.07-5.585,1.678-8.361.51-2.326,1.127-4.628,1.7-6.94l.02.032.093.2.093-.2.018-.03c.092-.114.285-.264.259-.336a4.657,4.657,0,0,1,.088-2.727c1.017-4.277,1.985-8.567,3.05-12.833.791-3.17,1.731-6.3,2.549-9.466.4-1.535.655-3.1,1-4.653.183-.816.455-1.612.629-2.43a26.436,26.436,0,0,0,.9-5.193c.01-.876.156-1.751.233-2.627a1.906,1.906,0,0,0-.009-.506c-.246-1.334-.423-1.892-2.039-1.5a32.72,32.72,0,0,0-17.265,11.336,91.679,91.679,0,0,0-9.454,14.362c-2.686,4.9-5.4,9.814-7.958,14.766a49.606,49.606,0,0,0-2.154,5.231c-.394,1.042-.681,2.126-.989,3.2a50.187,50.187,0,0,0-1.344,4.969c-.25,1.406-.758,2.713-1.1,4.072a6.526,6.526,0,0,0-.285,3.329,7.477,7.477,0,0,1-.085,2.091c-.034.758-.051,1.517-.078,2.276-.085,2.39-.1,4.785-.278,7.168-.142,1.958-.539,3.9-.688,5.856a33.72,33.72,0,0,0,.1,3.78,3.919,3.919,0,0,1,.078.492q-.351,3.485-.724,6.968c-.161,1.488-.343,2.974-.512,4.462-.019.168,0,.34-.025.506a2.8,2.8,0,0,1-2.76,2.654c-.853.134-1.682.416-2.524.623a1.368,1.368,0,0,1-.612.084,8.559,8.559,0,0,1-4.685-2.6c-1.15-1.355-2.47-2.566-3.714-3.842-.234-.24-.334-.463,0-.738.168-.139.379-.413.345-.58-.315-1.553.227-2.994.531-4.465.008-.041.048-.078.046-.117-.01-.281-.027-.562-.042-.842a3.782,3.782,0,0,0-.518.619c-1.158,2.194-2.314,4.39-3.441,6.6-.951,1.865-1.9,3.732-2.776,5.635a17.622,17.622,0,0,0-.82,2.639,1.607,1.607,0,0,0,.059.616c.1.644.518,1.25.217,1.946-.028.065.1.288.159.286,1.269-.036.308.609.207.832-.261.575-1.078.857-.893,1.685.006.027-.039.083-.073.1a9.106,9.106,0,0,0-2.229,1.722c-.747.628-1.829.49-2.76.71-1.889.447-3.638-.232-5.429-.56a5.238,5.238,0,0,1-1.37-.621c-.334-.174-.633-.416-.969-.587a11.308,11.308,0,0,1-5.618-6.965c-.42-1.272-.875-2.533-1.3-3.8q-.374-1.127-.692-2.272c-.591-2.126-1.19-4.251-1.745-6.387-.474-1.824-.909-3.659-1.33-5.5-.477-2.079-.976-4.155-1.362-6.252-.417-2.261-1.172-4.438-1.579-6.7-.1-.576-.128-1.168-.25-1.74-.548-2.574-.987-5.166-1.383-7.767-.271-1.777-.665-3.535-.942-5.311-.31-1.985-.544-3.983-.821-5.973-.237-1.7-.5-3.393-.728-5.093-.155-1.163-.275-2.332-.39-3.5-.23-2.328-.445-4.658-.667-6.988,0-.042,0-.094-.018-.124-.09-.12-.189-.232-.286-.347-.1.108-.278.208-.292.326-.117,1-.224,2-.294,3-.041.589.013,1.184-.011,1.774-.077,1.89-.139,3.782-.268,5.67-.126,1.839-.291,3.677-.508,5.507-.123,1.036-.424,2.05-.579,3.084-.571,3.828-2.039,7.43-2.8,11.206a25.533,25.533,0,0,0-.923,5.7,5.452,5.452,0,0,1-.141.737c-.125,1.039-.214,2.084-.36,3.12-.281,1.987-.53,3.983-.915,5.951-.231,1.183-.89,2.3-1,3.484s-.561,2.265-.77,3.409a1.438,1.438,0,0,0-.079.368,31.2,31.2,0,0,1-.145,4.984c-.023.395.215.847.093,1.186a37.309,37.309,0,0,1-1.538,3.706c-.454.933-1.161,1.75-1.563,2.7-.226.535-.6,1.208-.113,1.87a.512.512,0,0,1-.142.477,7.216,7.216,0,0,0-1.656.894c-.975,1.028-2.319.785-3.461,1.2a.685.685,0,0,1-.5-.019c-.991-.528-2.132-.437-3.156-.791a4.913,4.913,0,0,1-1.661-.855c-1.346-1.2-2.893-2.2-3.851-3.792a18.111,18.111,0,0,1-1.188-2.193,40.976,40.976,0,0,1-1.633-4.223,34.507,34.507,0,0,1-.671-3.564,26.506,26.506,0,0,0-.619-2.943,46.393,46.393,0,0,1-1.154-6.036c-.34-1.978-.67-3.958-.967-5.943-.217-1.449-.361-2.909-.558-4.362-.231-1.7-.509-3.392-.717-5.094-.142-1.165-.193-2.341-.294-3.512-.155-1.794-.322-3.588-.476-5.382-.029-.336-.029-.675-.029-1.013,0-2.147.021-4.3-.012-6.442-.014-.918-.145-1.835-.222-2.752l.064-.5-.267.327c-.325,1.378-.66,2.753-.972,4.134-.148.652-.241,1.317-.383,1.971-.067.309-.077.3.338,1.167a.729.729,0,0,1,.024.375c-.081.706-.161,1.413-.259,2.117a101.069,101.069,0,0,1-2.082,10.715,49.782,49.782,0,0,0-1.242,6.015c-.215,1.736-.716,3.435-1.043,5.159-.194,1.025-.259,2.075-.448,3.1-.25,1.357-.564,2.7-.853,4.052-.2.94-.443,1.873-.6,2.82a1.533,1.533,0,0,0,.175,1.07,1.694,1.694,0,0,1,.157,1.67,23.4,23.4,0,0,0-.677,4.206,10.764,10.764,0,0,1-1.574,4.352,13.108,13.108,0,0,0-1.507,3.309,7.805,7.805,0,0,1-2.1,3.221,3.019,3.019,0,0,0-.359.354c-.086.129-.2.378-.152.432a.92.92,0,0,0,.5.241,1.3,1.3,0,0,0,.453-.092c-.125.095-.238.25-.376.275-.866.157-1.221,1.019-1.937,1.377-.221.111-.424.326-.649.347-2.318.222-4.663.488-6.861-.536a10.692,10.692,0,0,1-2.246-1.6,19.706,19.706,0,0,1-3.428-3.325,18.626,18.626,0,0,1-1.8-3.447,47.515,47.515,0,0,1-2.961-9.181c-.415-1.832-.639-3.706-.981-5.555-.427-2.3-.91-4.6-1.322-6.9-.2-1.109-.276-2.24-.43-3.358-.251-1.824-.519-3.645-.786-5.467a.94.94,0,0,0-.134-.346c-.04-.064-.144-.145-.2-.132a.381.381,0,0,0-.247.176c-.063.153-.043.34-.111.489-.054.119-.187.2-.284.3l.008-.506a1.682,1.682,0,0,0,.187-.41c.016-.094-.071-.206-.112-.31a2.9,2.9,0,0,0-.239.314.69.69,0,0,0-.041.23c-.409,1.7-.824,3.4-1.224,5.106-.477,2.036-.942,4.076-1.408,6.114-.093.4-.167.814-.255,1.22-.007.032-.061.054-.094.08l-.113-.166.079-.266-.266.084a22.738,22.738,0,0,0-1.248,4.686c-.246,1.011-.506,2.019-.745,3.031-.259,1.094-.46,2.2-.765,3.285-.236.838-.59,1.643-.9,2.46-.069.185-.277.412-.224.534.558,1.3-.291,2.5-.229,3.769.017.347-.388.716-.6,1.073a6.928,6.928,0,0,0-1.195,2.529c-.032.219-.385.385-.574.59a.489.489,0,0,0-.155.318c.009.072.176.175.274.177.29,0,.581-.035.882-.046a29.61,29.61,0,0,1-3.519,1.507,16.776,16.776,0,0,1-4.159.829,8.342,8.342,0,0,1-1.607-.155,20.61,20.61,0,0,1-9.878-4.082,17.58,17.58,0,0,1-3.665-4.1,56.191,56.191,0,0,1-5.376-9.938c-1.149-2.651-2.5-5.215-3.641-7.868-.677-1.57-1.158-3.229-1.677-4.863q-1.122-3.536-2.168-7.1c-.952-3.252-1.856-6.518-2.8-9.773-.664-2.292-1.459-4.551-2.016-6.869-.625-2.6-1.049-5.25-1.557-7.879-.278-1.439-.538-2.881-.825-4.317-.31-1.553-.611-3.11-.977-4.65a15.16,15.16,0,0,0-.679-1.734,3.827,3.827,0,0,1-.272-.959,20.848,20.848,0,0,0-.844-4.309,2.138,2.138,0,0,1-.165-.6,27.009,27.009,0,0,0-.931-5.442c-.422-2.091-.757-4.2-1.13-6.3-.489-2.759-.936-5.527-1.477-8.276q-.861-4.375-1.872-8.719c-.367-1.586-.889-3.135-1.3-4.712-.581-2.227-1.009-4.5-1.72-6.685A18.872,18.872,0,0,0,451.554,93c-.353-.494-.626-.508-.9-.01a49.171,49.171,0,0,1-3.787,5.306c-.947,1.281-1.762,2.657-2.678,3.962-1.3,1.845-2.633,3.661-3.946,5.494-.977,1.363-1.939,2.736-2.918,4.1a4.011,4.011,0,0,0-.8,2.592c.05,1.3.037,2.6-.006,3.892-.039,1.173-.218,2.343-.219,3.514,0,1.767.117,3.533.148,5.3.016.9-.072,1.806-.07,2.709,0,.728.069,1.457.11,2.185a2.792,2.792,0,0,1,.041.5c-.192,1.461.076,2.918.022,4.38a35.545,35.545,0,0,0,.012,4.436c.213,2.408-.155,4.811.055,7.214a19.083,19.083,0,0,1,.017,2.935c-.05.753.079,1.552.062,2.348-.042,1.938.023,3.88.1,5.818.112,2.675.279,5.349.422,8.023.027.5.064,1.009.076,1.514.089,3.87.114,7.742.292,11.608.061,1.313.061,2.613.047,3.924a26.808,26.808,0,0,0,.247,5.032,3.991,3.991,0,0,1-.65,2.96,9.32,9.32,0,0,1-1.561,1.612.438.438,0,0,1-.347.129c-1.174-.41-2.2.4-3.315.383a3.878,3.878,0,0,1-1.961-.289c-1.1-.725-2.509-.767-3.481-1.77a13.821,13.821,0,0,0-2.446-2.043,8.521,8.521,0,0,1-1.543-1.64c-.04-.045,0-.175.024-.263a2.243,2.243,0,0,0,.121-.479c-.026-2.912-.07-5.824-.092-8.736-.01-1.345.037-2.691.02-4.036-.008-.624-.152-1.246-.157-1.869-.019-2.578,0-5.157-.01-7.736a34.693,34.693,0,0,0-.486-6.72,3.945,3.945,0,0,1-.019-.633c-.085-2.566.212-5.144-.245-7.7a1.5,1.5,0,0,1,.011-.631,17.423,17.423,0,0,0,.072-3.04c.126-1.353-.226-2.691.094-4.049a13.094,13.094,0,0,0,.012-2.712c.031-1.729-.17-3.461-.188-5.193-.035-3.381-.01-6.763-.011-10.145a6.754,6.754,0,0,0-.024-1.013.981.981,0,0,0-1.344-.807,3.142,3.142,0,0,0-.483.143,6.048,6.048,0,0,1-2.518.554c-1.408.04-2.811.274-4.213.452a7.1,7.1,0,0,0-.7.275,1.41,1.41,0,0,1-.733.054,35.362,35.362,0,0,1-5.462-2.206,1.016,1.016,0,0,1-.219-.123c-.566-.531-1.125-1.069-1.69-1.6-.3-.282-.687-.495-.663-1a.463.463,0,0,0-.165-.328c-1.085-.861-1.326-2.434-2.633-3.121a.7.7,0,0,1-.078-.645,1.425,1.425,0,0,0,.38-1.279,28.851,28.851,0,0,1,1.248-7.668,36.735,36.735,0,0,1,2.125-5.77,40.374,40.374,0,0,1,2.222-4.1,21.606,21.606,0,0,1,5.149-5.442c1.262-1.045,2.418-2.231,3.75-3.173,1.4-.986,2.943-1.757,4.426-2.619.29-.169.6-.3.883-.483a2.072,2.072,0,0,0,1.034-1.973c-.017-1.284-.049-2.583.014-3.854.125-2.507.142-5.013.228-7.519.071-2.093.236-4.192.513-6.267.45-3.37.11-6.743.2-10.112.016-.584.007-1.168.023-1.751a4.023,4.023,0,0,0-.316-1.846,3.062,3.062,0,0,1-.185-1.228c-.015-2.832.023-5.665-.019-8.5-.026-1.715-.153-3.428-.257-5.141-.039-.648-.417-.891-1.039-.588a8.8,8.8,0,0,0-2.033,1.245,3.5,3.5,0,0,1-3.741.8,7.437,7.437,0,0,1-2.145-.925,6.089,6.089,0,0,0-1.531-.479c-.433-.15-.5-.456-.149-.722.5-.381,1.023-.732,1.554-1.066s1.1-.613,1.629-.955a12.422,12.422,0,0,1,6.288-1.932c.751-.036,1.5-.19,2.248-.21a9.65,9.65,0,0,1,1.741.157,6.175,6.175,0,0,1,1.708.393,5.9,5.9,0,0,1,2.881,2.835c.477,1.02.89,2.07,1.311,3.115a3.984,3.984,0,0,1,.19.839c.119.723.812,1.019,1.172,1.564.029.044.321-.014.424-.1a9.739,9.739,0,0,0,.9-.888c1.03-1.153,1.965-2.406,3.09-3.457a89.993,89.993,0,0,1,7.322-6.557c1.268-.949,2.4-2.088,3.679-3.012,1.395-1,2.882-1.883,4.357-2.768,1.614-.968,3.233-1.934,4.9-2.8a28.437,28.437,0,0,1,5.681-2.018,29.194,29.194,0,0,1,9.229-1.018,9.659,9.659,0,0,1,6.352,2.344,7.68,7.68,0,0,1,2.459,3.3,8.611,8.611,0,0,1,.445,3.72,64.262,64.262,0,0,1-2.728,11.343c-1.1,3.119-2.2,6.236-3.381,9.328a31.888,31.888,0,0,1-2.217,4.628c-.46.8-.75,1.688-1.165,2.512-1.1,2.173-2.21,4.332-3.191,6.567-1.007,2.3-2.282,4.477-3.479,6.687-1.015,1.874-2.055,3.736-3.137,5.572-1.574,2.67-3.183,5.321-4.8,7.964-.909,1.484-.864,1.783.639,2.637a11.381,11.381,0,0,1,2.5,2.282c.541.569,1.126,1.1,1.631,1.7.565.67,1.078,1.385,1.584,2.1.531.753.972,1.575,1.548,2.29a32.182,32.182,0,0,1,2.562,4.164,16.06,16.06,0,0,1,2.071,5.087,45.025,45.025,0,0,0,1.575,5q1.176,3.718,2.322,7.446a17,17,0,0,0,.646,2.153c.406.876.342,1.838.675,2.733a17.047,17.047,0,0,1,.561,2.827c.283,1.523.575,3.044.849,4.569.317,1.77.606,3.544.932,5.312.129.7.342,1.382.489,2.079.433,2.046.852,4.094,1.277,6.142.578,2.786,1.294,5.552,1.7,8.362.617,4.23,1.6,8.383,2.4,12.575a31.765,31.765,0,0,0,1.4,5.2c1.471,3.928,2.364,8.021,3.619,12.009.54,1.716,1.09,3.428,1.63,5.144a64.353,64.353,0,0,0,4.1,10c.877,1.714,1.551,3.533,2.443,5.239a39.717,39.717,0,0,0,4.781,7.806,6.307,6.307,0,0,1,.823,1.264A5.207,5.207,0,0,0,504,210.6a.767.767,0,0,0,1.028-.1c1.079-.994,2.133-2.018,3.251-2.967,1.067-.9,1.163-2.186,1.406-3.39.721-3.565,1.368-7.145,2.054-10.717q.545-2.836,1.129-5.665c.639-3.073,1.322-6.137,1.94-9.214.609-3.035,1.254-6.067,1.707-9.127a31.726,31.726,0,0,0,.2-7.9c-.1-.99-.118-1.992-.125-2.988-.017-2.452-.039-4.9,0-7.355.036-2.018.128-4.037.261-6.051.106-1.608.317-3.21.465-4.816a.256.256,0,1,0-.392-.135c-.1.272-.165.56-.251.839A3.75,3.75,0,0,1,516.5,141.474Zm-47.007-111.2a2.315,2.315,0,0,0-.172.182c-.1.129-.19.264-.285.4a1.105,1.105,0,0,1-.036-.4c.449-1.438.957-2.859,1.356-4.31a20.294,20.294,0,0,0,.552-2.961c.134-1.116-.038-1.3-1.137-1.242a17.059,17.059,0,0,0-2.736.368,25.019,25.019,0,0,0-5.763,2.107c-1.5.749-3.031,1.439-4.522,2.19a25.5,25.5,0,0,0-6.213,4.255c-1.33,1.268-2.806,2.387-4.248,3.534A52.021,52.021,0,0,1,442.1,37.9a14.994,14.994,0,0,0-2.681,2.626,66.177,66.177,0,0,1-5.113,5.327,2.082,2.082,0,0,0-.7,2.487c1.029,2.649.8,5.457,1.128,8.192.154,1.287.015,2.591.239,3.9.3,1.729.366,3.5.549,5.245a12.766,12.766,0,0,1,.231,1.612,18,18,0,0,1-.2,4.532,2.125,2.125,0,0,0,.025.753c.059.582.179,1.162.187,1.743.025,1.9,0,3.8.019,5.7.009.813.094.87.875.892a3.452,3.452,0,0,0,.758-.038,12.8,12.8,0,0,1,5,0c1.028.2,1.419.006,1.957-.942.432-.762.82-1.55,1.273-2.3.5-.824,1.08-1.6,1.578-2.425q2.045-3.389,4.047-6.8c1.49-2.531,3.015-5.045,4.43-7.617,1.132-2.058,2.113-4.2,3.182-6.294.893-1.751,1.835-3.478,2.718-5.234.354-.705.546-1.5.921-2.188.694-1.28,1.537-2.482,2.192-3.78.85-1.685,1.5-3.474,2.375-5.144a47.632,47.632,0,0,0,2.536-7.065,2.543,2.543,0,0,0,.05-.63l.079-.266ZM669.913,43.588l-.1-.017a18.25,18.25,0,0,0-.011-1.864,41.258,41.258,0,0,0-.549-4.233,13.1,13.1,0,0,0-2.425-5.989c-.6-.724-.935-.88-1.641-.3a7.646,7.646,0,0,0-1.232,1.419,34.346,34.346,0,0,0-2.835,3.992,29.317,29.317,0,0,0-2.633,5.647c-.29,1-.87,1.916-1.17,2.914-.348,1.157-.541,2.361-.779,3.549a1.855,1.855,0,0,0,.078.585c.157-.113.321-.218.467-.344.059-.051.072-.151.116-.222.063-.1.135-.2.2-.295a1.978,1.978,0,0,1-.022.363c-.527,2.151-1.1,4.292-1.575,6.453a21.69,21.69,0,0,0-.633,4.088,20.944,20.944,0,0,1-.507,3.69c-.075.369-.184.733-.235,1.1-.31,2.27-.6,4.542-.911,6.813a33.013,33.013,0,0,0-.649,5.616,14.066,14.066,0,0,1-.273,2.5,57.538,57.538,0,0,0-.888,6.2c-.066,1.816-.43,3.571-.65,5.349-.334,2.691-.831,5.36-.938,8.078-.043,1.085-.135,2.169-.176,3.254a24.059,24.059,0,0,0-.1,4.363,1.834,1.834,0,0,1-.055.5,8.58,8.58,0,0,0-.208,3.453,1.493,1.493,0,0,1-.019.5c-.069.665-.147,1.329-.213,1.994-.1,1.043-.194,2.088-.3,3.131-.147,1.415-.307,2.828-.458,4.242-.071.665-.152,1.329-.2,2-.065.877-.116,1.755-.139,2.634,0,.124.19.252.292.378a1.412,1.412,0,0,0,.194-.292c.709-2.015,1.436-4.025,2.112-6.051,1.06-3.179,2.088-6.368,3.12-9.555.349-1.076.639-2.172,1.006-3.242,1.046-3.05,2.169-6.076,3.163-9.142.839-2.589,1.588-5.21,2.291-7.84.768-2.87,1.427-5.769,2.152-8.651,1.145-4.547,2.726-8.981,3.513-13.62q.714-4.207,1.416-8.415c.262-1.568.51-3.138.777-4.705.155-.906.339-1.807.5-2.711.142-.781.293-1.561.411-2.346C669.446,46.9,669.676,45.244,669.913,43.588ZM404.4,114.19a7.417,7.417,0,0,0,1.471,4.785,2.832,2.832,0,0,0,3.1,1.13c1.4-.569,2.76-1.221,4.152-1.8,1.878-.784,3.271-2.284,4.975-3.325.943-.577,1.644-1.538,2.825-1.749a.707.707,0,0,0,.419-.395,6.085,6.085,0,0,0,.652-2.505c-.053-2.4-.035-4.812-.007-7.217.008-.749.141-1.5.208-2.245a5.539,5.539,0,0,0,.023-.758c-.076-1.569-.193-3.137-.226-4.708-.015-.7.149-1.411.2-2.119.037-.546.034-1.1.02-1.644-.014-.528-.1-1.056-.091-1.582.014-.806-.33-1.111-1.056-.738-1.373.707-2.733,1.451-4.039,2.274a18.1,18.1,0,0,0-3.462,2.916c-.458.483-1.044.845-1.506,1.325-.826.857-1.222,2.126-2.49,2.569-.126.044-.2.259-.284.4a32.537,32.537,0,0,0-3.86,8.981A34.41,34.41,0,0,0,404.4,114.19Zm35.715-30.1v-.035c-1.083.09-2.165.187-3.249.267-.906.067-1.092.211-1.077,1.166.034,2.173.114,4.344.175,6.516.006.23.006.46.009.69.2-.14.409-.276.607-.422a.78.78,0,0,0,.171-.185q2.327-3.349,4.647-6.7a2.25,2.25,0,0,0,.272-.566c.128-.384.03-.683-.418-.722C440.873,84.063,440.491,84.089,440.112,84.089Zm77.576,49.186a4.95,4.95,0,0,0,.076.529c.016.066.1.115.152.171.03-.03.085-.06.085-.089,0-.361-.011-.723-.018-1.084-.06.007-.164,0-.172.023C517.757,132.978,517.723,133.14,517.689,133.275Zm.217,2.207-.285-.445a1.222,1.222,0,0,0-.147.429,2.269,2.269,0,0,0,.166.545Zm.984-7.447-.216-.4a1.2,1.2,0,0,0-.17.414c0,.108.13.218.2.327Zm33.962,39.915-.237-.219c-.037.068-.114.142-.1.2a1.287,1.287,0,0,0,.136.31ZM517.39,137.175a1.953,1.953,0,0,0-.135.4c-.006.065.066.136.1.2.066-.075.178-.146.184-.225C517.55,137.457,517.467,137.353,517.39,137.175Zm.949-8.279a1.5,1.5,0,0,0-.061.35c0,.066.083.128.128.192a4.1,4.1,0,0,0,.13-.424C518.54,129,518.432,128.951,518.339,128.9Zm-.83,9.586-.09-.212c-.032.016-.09.03-.093.05a1.363,1.363,0,0,0,0,.218Zm63.413,62.631-.1-.207c-.033.026-.093.052-.094.079a1.085,1.085,0,0,0,.035.219Zm-62.651-69.246-.1-.207c-.033.026-.093.052-.094.079a1.087,1.087,0,0,0,.035.219Zm.761-5.073-.1-.207c-.033.026-.093.052-.094.079a1.085,1.085,0,0,0,.035.219Zm-1.6,52.362c.029-.067.08-.131.075-.19,0-.04-.087-.072-.134-.108-.026.062-.076.126-.071.186C517.3,179.085,517.38,179.119,517.427,179.157Zm39.109-53.282-.071-.083c-.027.024-.075.046-.077.072a.1.1,0,0,0,.066.076C556.48,125.942,556.509,125.9,556.536,125.875Zm91.82-.254-.071-.083c-.027.024-.075.046-.077.072a.1.1,0,0,0,.066.076C648.3,125.688,648.329,125.645,648.357,125.621Zm8.117-75.841L656.4,49.7c-.028.024-.075.046-.077.072a.1.1,0,0,0,.066.076C656.417,49.847,656.446,49.8,656.473,49.78Zm-176.1-24.434-.083.071.071.083c.028-.024.075-.046.077-.072S480.4,25.373,480.372,25.346Zm.07-.677-.071-.083c-.028.024-.075.046-.077.072a.1.1,0,0,0,.066.076C480.386,24.736,480.414,24.693,480.442,24.669Zm71.205,149.314-.083.071.071.083c.027-.024.075-.046.077-.072S551.671,174.011,551.647,173.983Z" transform="translate(-24.261 -18.502)"/><path d="M287.924,119.41c-.972,1.691-1.508,3.926-2.667,5.48a21.544,21.544,0,0,0-1.471,2.181c-.557.977-1.05,1.992-1.538,3.006-.8,1.657-1.618,3.306-2.343,5-1.537,3.579-4.821,18.46-6.464,21.988-.857,1.84-1.814,4.637-2.537,6.509-.815,2.111-.511,3.391-1.327,5.5-.179.463-.668.81-.834,1.275-.673,1.895-1.281,3.813-1.9,5.725-.571,1.752-1.122,3.509-1.7,5.259-.667,2.03-1.326,4.064-2.035,6.08a84.483,84.483,0,0,0-2.628,8.638.431.431,0,0,0,.026.37,39.661,39.661,0,0,1-.936,4.334c-.469,1.683-.957,3.361-1.489,5.025-.842,2.631.231,5.216-.8,7.782a7.833,7.833,0,0,1-3.641,3.737,5.37,5.37,0,0,1-4.758.241,18.137,18.137,0,0,1-3.575-1.824,11.6,11.6,0,0,1-2.574-2.677,34.173,34.173,0,0,1-5.867-13.1c-.317-1.256-.575-2.528-.845-3.8-.487-2.29-1.1-4.563-1.407-6.877-.325-2.487-.823-4.945-1.1-7.439-.151-1.368-.493-2.713-.682-4.078-.13-.941-.14-1.9-.214-2.847-.114-1.463-.229-2.926-.356-4.387q-.26-2.986-.545-5.969a4.031,4.031,0,0,0-.231-.846,1.328,1.328,0,0,0-.185-.287,1.587,1.587,0,0,0-.2.3c-.514,1.374-1.016,2.753-1.529,4.127-1.1,2.941-2.249,5.864-3.293,8.824-.9,2.566-1.659,5.185-2.541,7.759-.652,1.9-1.4,3.769-2.109,5.651l-.266-.079.084.266-.052.581-.233-.361-.234.358-.07.5.261-.3.075-.006a6.466,6.466,0,0,1-1.064,2.853l-.005-.077.066-.272-.268.092v.433c.02.109.093.286.053.317a3.06,3.06,0,0,0-.96,2.646l-.032.027c-.721.494-.8,1.346-1.038,2.06-1.376,4.049-2.787,8.081-4.422,12.036-.734,1.775-1.282,3.627-1.947,5.432a9.756,9.756,0,0,1-.7,1.326,1.466,1.466,0,0,0-.1,1.424,3.57,3.57,0,0,1-.994,4.2c-.269.256-.628.555-.678.875-.1.643-.448.735-.963.691-.417-.036-.835-.071-1.252-.113-.123-.013-.292-.114-.359-.064-1.2.886-2.134-.183-3.132-.475a21.023,21.023,0,0,1-3.065-1.394,5.468,5.468,0,0,1-.624-.411,9.553,9.553,0,0,0-1.368-.889c-2.1-.914-2.949-2.743-3.618-4.737a26.482,26.482,0,0,1-1.018-6.175,8.947,8.947,0,0,0-.261-1.609,15.39,15.39,0,0,1-.236-3.769c-.084-2.861-.134-5.724-.271-8.582-.1-1.974-.434-3.941-.444-5.913a21.633,21.633,0,0,1,.186-5.5,2.6,2.6,0,0,0,.022-.505,71.827,71.827,0,0,1,.181-7.2c.083-.562.05-1.223.08-1.835.064-1.3.17-2.6.268-3.893.071-.947.153-1.894.237-2.84.022-.25.071-.5.1-.745a26.331,26.331,0,0,0,.384-4.077,1.513,1.513,0,0,0-.158-.443c-.12.107-.25.205-.359.323a2.056,2.056,0,0,0-.31.4,25.81,25.81,0,0,0-2.641,6.342,16.916,16.916,0,0,1-.992,2.445c-.82,1.975-1.661,3.942-2.451,5.929-.571,1.436-1.055,2.907-1.615,4.348a13.625,13.625,0,0,1-.725,1.319,67.962,67.962,0,0,0-3.827,8.757,12.208,12.208,0,0,1-.93,1.776,2.973,2.973,0,0,0-.326,2.871,5.212,5.212,0,0,1,.157,1.794c0,.016-.227.011-.31.069-.543.377-1.152.719-1.039,1.553-.567.178-1.281.064-1.544.847-.042.124-.367.187-.571.217a4.952,4.952,0,0,1-3.314-.323c-1.9-1.049-3.838-2.038-5.779-3.013a3.258,3.258,0,0,1-1.415-1.181c-.793-1.271-1.826-2.422-1.865-4.039-1-2.2-.793-4.6-1.17-6.9q-.406-2.476-.717-4.967c-.079-.625-.008-1.268-.053-1.9-.158-2.212-.241-4.436-.54-6.629-.195-1.425-.167-2.837-.236-4.257-.059-1.212-.293-2.418-.31-3.629a6.63,6.63,0,0,1-.013-2.19c.144-.473-.134-1.062-.148-1.6-.029-1.128-.01-2.257-.01-3.386,0-2.748.019-5.5-.01-8.243-.01-.961-.144-1.92-.215-2.88a2.979,2.979,0,0,1-.016-.758,7.821,7.821,0,0,0,.007-1.972c-.129-2.057-.155-4.12-.282-6.177-.123-2.008-.344-4.01-.473-6.017a14.736,14.736,0,0,1,.112-2.007,4.73,4.73,0,0,0,.1-1,35.182,35.182,0,0,1,.024-4.244c-.045-1.478-.01-2.959-.01-4.438,0-1.437.033-2.876-.008-4.312q-.08-2.762-.269-5.519a7.52,7.52,0,0,0-.386-1.442,13.851,13.851,0,0,0-.9,1.152c-.913,1.447-1.782,2.922-2.7,4.367a27.449,27.449,0,0,0-2.981,7.179c-.4,1.367-.832,2.728-1.127,4.117-.415,1.951-1.513,3.623-2.113,5.485-.537,1.669-.923,3.388-1.337,5.094-.513,2.113-.842,4.265-1.453,6.362-.53,1.816-1.3,3.537-1.888,5.322-.6,1.823-1,3.713-1.481,5.577a14.165,14.165,0,0,1-.333,1.469,20.538,20.538,0,0,0-.7,3.947,38.515,38.515,0,0,1-.927,3.9c-.4,1.452-.927,2.871-1.311,4.327a6.093,6.093,0,0,0-.237,2.232c.24,1.949.651,3.877.926,5.823.31,2.193.529,4.4.817,6.6.284,2.167.4,4.344.567,6.519a28.817,28.817,0,0,0,.577,4.35c.3,1.28.385,2.645.615,3.966.287,1.649.539,3.3.807,4.957.087.537.218,1.07.257,1.61a2.112,2.112,0,0,1-.746,2.1,8.408,8.408,0,0,0-1.158,1.441c-.446.53-.932.978-1.727.65a1.771,1.771,0,0,0-.749-.076,6.592,6.592,0,0,1-5.124-2.158,19.822,19.822,0,0,0-3.33-2.544,7.733,7.733,0,0,0-2.26-1.308,1.209,1.209,0,0,1-.778-1.322c.145-2.38-.606-4.644-.932-6.963-.134-.954-.217-1.915-.336-2.871-1.275-10.287-2.013-20.662-3.518-30.9-.164-1.118-.2-2.256-.281-3.386-.1-1.34-.182-2.681-.289-4.02-.049-.608-.143-1.212-.21-1.818-.091-.833-.188-1.665-.261-2.5-.178-2.047-.324-4.1-.521-6.141-.112-1.164-.345-2.317-.437-3.481-.082-1.027.005-2.066-.068-3.094-.343-4.846-.223-9.7-.248-14.549a3.748,3.748,0,0,0-.032-.505c-.04-.282-.233-.378-.422-.182a4.066,4.066,0,0,0-.845,1.078c-1,2.263-1.992,4.534-2.928,6.826-.713,1.747-1.319,3.538-2.011,5.294-.889,2.256-1.92,4.461-2.7,6.753-1.326,3.885-2.514,7.817-3.741,11.735-.514,1.64-.885,3.331-1.486,4.936-.895,2.391-1.9,4.745-2.808,7.127-.8,2.116-1.819,4.132-2.624,6.245a55.384,55.384,0,0,1-2.766,6.743,8.135,8.135,0,0,0-.664,2.283,22.649,22.649,0,0,1-1.407,3.477,2.924,2.924,0,0,0-.166,1.438,14.863,14.863,0,0,1,.141,3.233,13.091,13.091,0,0,0,.123,2.255c.028.419.085.838.086,1.257.008,3-.009,6,.013,9,.006.835.158,1.669.167,2.5s-.129,1.644-.113,2.465c.031,1.633.173,3.265.175,4.9a19.783,19.783,0,0,0,.434,3.743c.079.407.029.838.067,1.255.042.467-.761.451-.549,1a1.348,1.348,0,0,1-.393.031c-.691-.154-.907-.1-.919.5-.008.407-.092.456-.426.563a3.889,3.889,0,0,0-1.206.631,2.376,2.376,0,0,1-2.954.27,4.345,4.345,0,0,0-.915-.412,4.931,4.931,0,0,1-2.574-1.231.733.733,0,0,0-.45-.217,4.778,4.778,0,0,1-3.823-2.391,8.3,8.3,0,0,1-.478-3.141c-.279-12.622-.557-25.249-.354-37.875.1-6.305.322-12.61.723-18.9q.3-4.719.743-9.428c.264-2.787-.09-4.989-.023-7.788.038-1.6.038-3.207.037-4.811,0-.273-.187-.369-.418-.2a2.837,2.837,0,0,0-.556.515c-.746.959-1.513,1.9-2.2,2.9-1.048,1.519-2.051,3.07-3.047,4.624-.608.948-1.217,1.9-1.74,2.9-6.717,12.8-12.68,25.94-19.229,38.827-1.528,3.006-3.125,5.977-4.748,8.933-.835,1.522-1.843,3.028-2.553,4.611-.272.606-.543,2.287-1.195,2.472a.757.757,0,0,0-.373.579c-.019.313-.168.327-.39.337a1.773,1.773,0,0,0-1.2.682,3.96,3.96,0,0,1-2.962.8,5.969,5.969,0,0,1-3.113-.685,7.9,7.9,0,0,0-1.532-.488,3.7,3.7,0,0,1-.888-.428c-1.689-1.172-3.366-2.362-5.045-3.547a17.732,17.732,0,0,1-5.317-5.779,21.679,21.679,0,0,1-2.32-6.6c-.3-1.475-.709-2.93-.926-4.415a35.733,35.733,0,0,1-.307-4.221c-.049-1.859.024-3.721-.022-5.579a51.2,51.2,0,0,1,.292-5.924c.178-1.949.272-3.907.5-5.851.22-1.912.538-3.813.847-5.713.175-1.073.429-2.132.629-3.2a58.153,58.153,0,0,1,2.192-8.6c.276-.787.417-1.62.621-2.432a2.3,2.3,0,0,1,.167-.6,12.156,12.156,0,0,0,.951-3.415,33.641,33.641,0,0,1,1.008-3.5,1.442,1.442,0,0,0-.515-1.775c-.789-.695-1.549-1.423-2.359-2.092a8.379,8.379,0,0,1-2.17-3.216,24.936,24.936,0,0,1-1.666-6.678,53.6,53.6,0,0,1-.184-8.843,36.611,36.611,0,0,1,.77-5.719c.343-1.935.8-3.85,1.223-5.77.153-.695.352-1.38.533-2.069.925-3.523,1.819-7.055,2.793-10.565.345-1.242.875-2.433,1.339-3.641.587-1.527,1.192-3.047,1.789-4.57.192-.491-.093-.7-.5-.829a10.88,10.88,0,0,1-1.548-.5,4.761,4.761,0,0,1-.927-.8c.418-.135.773-.44,1.294-.216a6.057,6.057,0,0,0,1.244.168c1.325.247,1.341.263,1.878-.976.85-1.959,1.652-3.939,2.513-5.892,1-2.263,2.012-4.521,3.068-6.757.824-1.745,1.714-3.46,2.595-5.178.364-.71.774-1.4,1.174-2.086.082-.141.215-.364.322-.362,1.1.02,1.233-1.006,1.647-1.621,1.939-2.888,3.791-5.835,5.675-8.761a1.063,1.063,0,0,1,.15-.2,9.1,9.1,0,0,0,1.839-2.827,3.948,3.948,0,0,1,1.007-1.255c1.147-.968,2.322-1.907,3.533-2.794a3.823,3.823,0,0,1,1.476-.623,21.986,21.986,0,0,0,2.907-.76,9.61,9.61,0,0,1,4.8-.279c.453.076.9.209,1.353.25a3.238,3.238,0,0,1,1.985,1.243A11.292,11.292,0,0,1,71.884,34.9c.208.334.531.682.269,1.157a.433.433,0,0,0,.027.359c.667,1.144.3,2.4.388,3.6a1.133,1.133,0,0,1-.045.5c-.745,1.773-1.187,3.669-2.31,5.293-.589.853-.884,1.907-1.459,2.772q-1.881,2.828-3.929,5.543A28.8,28.8,0,0,1,62.758,56.3c-.6.645-1.155,1.336-1.77,1.967-1.218,1.25-2.433,2.506-3.706,3.7a58.239,58.239,0,0,1-4.6,4.066,52.525,52.525,0,0,1-5.163,3.29,2.208,2.208,0,0,0-1.18,1.47c-.956,3.475-2.122,6.884-3.384,10.264a40.652,40.652,0,0,0-1.318,4.969c-.343,1.464-.608,2.946-.9,4.422a20.694,20.694,0,0,0-.735,4.189,26.877,26.877,0,0,1-.4,3.06c-.045.491.037,1-.036,1.48-.261,1.736-.626,3.457-.833,5.2s-.276,3.512-.392,5.27a1.55,1.55,0,0,0,.128.475,2.052,2.052,0,0,0,.419-.4c1.291-2.212,2.507-4.471,3.866-6.64,1.691-2.7,3.418-5.387,5.283-7.968,1.1-1.526,2.524-2.819,3.758-4.254.453-.528.738-1.2,1.171-1.746a59.13,59.13,0,0,1,6.594-7.626,19.815,19.815,0,0,1,2.023-1.7,6.813,6.813,0,0,1,1.62-.643,5.733,5.733,0,0,0,1.65-.561c.754-.593,1.747-.379,2.478-.92.792.308,1.7-.42,2.456.266a.853.853,0,0,0,.46.177c.734.077,1.374.17,1.641,1.074a3.048,3.048,0,0,1,.271,2.047,8.31,8.31,0,0,0-.333,2.231A13.065,13.065,0,0,1,70,88.893a49.679,49.679,0,0,1-3.2,4.975c-.763,1.1-1.552,2.185-2.311,3.289a10.846,10.846,0,0,0-.531.992c-.218.4-.437.8-.666,1.2-.167.29-.476.558-.5.856a3.916,3.916,0,0,1-1.148,2.2c-.885,1.017-1.34,2.312-2.311,3.3a7.015,7.015,0,0,0-1.039,2.271.316.316,0,0,0,.123.284c.454.141.192.327.057.523-.477.69-.967,1.37-1.415,2.079-.538.851-1,1.748-1.563,2.585-.51.765-1.093,1.483-1.658,2.21a34.957,34.957,0,0,0-2.849,4.57c-.874,1.575-1.829,3.114-2.566,4.751a6.043,6.043,0,0,1-1.286,2.255c.222.681-.459.895-.718,1.31a7.306,7.306,0,0,0-.728,3.231c-.1.831-.185,1.667-.357,2.485-2.541,12.081-5.025,25.006-4.681,37.407.033,1.194.117,2.386.179,3.578.081,1.576.276,3.156.211,4.726a25.988,25.988,0,0,0,.592,4.808,7.464,7.464,0,0,0,.257,1.225c.4,1.236.822,2.464,1.239,3.694a3.2,3.2,0,0,0,.236.576c.671,1.16.8,1.167,1.748.162A51.458,51.458,0,0,0,50.3,183.34a14.518,14.518,0,0,1,2.171-3.16c.343-.305.246-1.043.608-1.539.232-.318.273-.754.777-.809.013,0,0-.226.012-.357.333-.048.31-.271.251-.512l.032-.02.2-.093-.2-.093-.03-.018,1.186-2.457.266.079-.084-.266c.55-1.221,1.109-2.439,1.647-3.666.25-.569.46-1.156.688-1.735l.269.327-.066-.5c.309-.762.588-1.538.933-2.284.446-.965.944-1.907,1.419-2.859l.266.079-.084-.266.071-.321.266.079-.084-.266a1.291,1.291,0,0,1,.047-.486c.674-1.219,1.366-2.428,2.053-3.639l.266.079-.084-.266c.937-1.963,1.865-3.93,2.814-5.886.42-.865.881-1.709,1.326-2.562,1.127-2.163,2.26-4.323,3.381-6.488,1.527-2.949,3.352-5.712,5.162-8.492a24.675,24.675,0,0,1,3.544-4.216c.964-.939,1.977-1.828,2.979-2.726a2.087,2.087,0,0,1,.633-.385,34.21,34.21,0,0,0,3.237-1.23c4.2-2.121,7.074,2.617,7.986,5.985a32.47,32.47,0,0,1,.821,7.466c.383,11.893.615,23.8,1.2,35.689a35.977,35.977,0,0,0,.527,3.648.736.736,0,0,0,.12.217.779.779,0,0,0,.2-.127,1.045,1.045,0,0,0,.2-.319c.46-1.348.882-2.71,1.374-4.046.549-1.49,1.19-2.946,1.736-4.437.618-1.688,1.185-3.4,1.747-5.1a3.693,3.693,0,0,0,.055-.881,2.424,2.424,0,0,1,.077-.749c1.327-3.175,2.026-6.561,3.291-9.761.6-1.514.951-3.124,1.43-4.686.392-1.28.8-2.554,1.209-3.83.607-1.916,1.208-3.835,1.826-5.748.386-1.195.781-2.388,1.206-3.57q1.3-3.608,2.63-7.2a51.125,51.125,0,0,1,5.009-10.408,7.633,7.633,0,0,1,3.264-2.787c1.346-.65,2.512-1.1,3.911-.418.847-.174,1.2.624,1.763.965a3.75,3.75,0,0,1,1.715,2.256,19.327,19.327,0,0,0,1.135,3.041c2.514,5.347,3.049,12.319,4.184,18.089,1.485,7.552,2.023,15.545,3.883,22.983.087.621.116,1.25.181,1.874s.126,1.239.228,1.853c.022.131.213.234.326.349.093-.113.237-.212.272-.34.343-1.25.714-2.5.985-3.763.236-1.1.375-2.228.511-3.348a3.277,3.277,0,0,0-.046-1.383,3.693,3.693,0,0,1,.053-2.347c.208-.68.311-1.4.558-2.06a39.67,39.67,0,0,0,1.457-5.582c.368-1.718.9-3.4,1.285-5.115.546-2.448.969-4.923,1.541-7.364a66.221,66.221,0,0,1,1.881-7.414c.678-1.885,1.088-3.867,1.635-5.8.306-1.082.772-2.111,1.154-3.158.958-2.627,2.53-4.924,3.677-7.44a25.973,25.973,0,0,1,3.249-4.929,5.452,5.452,0,0,1,1.169-.883l.266.079-.084-.266.682-.424.02.032.093.2.093-.2.018-.03a5.792,5.792,0,0,1,2.957-.422,4,4,0,0,1,2.4.864c1.936,1.438,2.517,3.406,2.722,5.642.1,1.076.383,2.136.583,3.2.738.491.628,1.283.75,2.011.089.531.352,1.031.47,1.56.2.9.362,1.8.51,2.706,2.143,13.16,4.091,26.593,4.948,39.934.474,7.374.932,14.737,1.616,22.089.135,1.457.4,2.9.6,4.353.145,1.078.239,2.163.4,3.237.229,1.483.092,3.03.748,4.44a3.351,3.351,0,0,0,.258.4c.155-.111.38-.188.452-.338.418-.87.836-1.743,1.187-2.641.883-2.261,1.664-4.564,2.613-6.8a30.641,30.641,0,0,0,2.114-5.322,21.021,21.021,0,0,1,.806-2.632c.429-1.182.933-2.337,1.374-3.516.689-1.844,1.335-3.7,2.033-5.545.37-.976.79-1.935,1.23-2.882a24.43,24.43,0,0,0,1.741-5.888c.4-2.143.806-4.278,1.4-6.376q1.4-4.955,2.795-9.91c.49-1.734.951-3.477,1.484-5.2s1.114-3.429,1.724-5.125c.968-2.689,1.548-5.482,2.293-8.231.536-1.979,1.192-3.926,1.817-5.881a1,1,0,0,1,.422-.429,13.326,13.326,0,0,0,2.178-1.4,1.526,1.526,0,0,1,1.836-.277c.337.176.943.1,1.08.337a2.881,2.881,0,0,1,.111,1.331,6.391,6.391,0,0,1-.591,3.674.671.671,0,0,0-.1.356c.028,1.362.161,2.731.068,4.084-.061.883.169,1.727.109,2.588-.141,2.007-.375,4.009-.454,6.017-.055,1.381.084,2.769.141,4.154.007.167.055.333.06.5.343,11.038.131,22.082,0,33.121-.067,5.523-.115,11.047-.065,16.57q.038,4.14.159,8.278c.074,2.418.669,5.177.44,7.547a18.61,18.61,0,0,0-.01,2.661c.05,1.046.166,2.09.25,3.135.088,1.086.164,2.173.268,3.258a2.006,2.006,0,0,0,.225.543,2.09,2.09,0,0,0,.526-.425,5.173,5.173,0,0,0,.4-.921c1.033-2.7,2.1-5.381,3.078-8.1.512-1.416.84-2.9,1.32-4.325q1.66-4.946,3.392-9.868c.492-1.407,1.056-2.788,1.554-4.193.28-.789.479-1.607.737-2.4.607-1.874,1.233-3.743,1.842-5.616.957-2.943,1.881-5.9,2.869-8.828.588-1.744,1.319-3.44,1.9-5.186.886-2.663,1.747-5.332,2.693-7.977a9.973,9.973,0,0,0,.438-6.069,2.835,2.835,0,0,1-.041-.631c-.121-3.062-.252-6.123-.358-9.185-.069-2-.085-4-.155-6.006a286.921,286.921,0,0,1,8.348-79.171c.445-1.771,1.153-3.477,1.73-5.207.531-1.591,1.024-3.2,1.608-4.768a20.534,20.534,0,0,1,2.185-5.039,3.33,3.33,0,0,1,.988-.928c.757-.441,1.562-.8,2.356-1.176.944-.447,1.876-.932,2.852-1.295,1.135-.422,2.31-.739,3.476-1.076a.9.9,0,0,1,.609.065,11.69,11.69,0,0,1,6.3,7.6,8.282,8.282,0,0,1-.006,2c0,.746-.009,1.492.006,2.238.007.334.088.668.088,1,.008,2.79.048,5.581-.016,8.369-.028,1.206-.3,2.406-.424,3.611a34.807,34.807,0,0,0-.3,3.636,36.4,36.4,0,0,1-.905,7.35c-.243,1.187-.451,2.386-.6,3.589a21.821,21.821,0,0,1-1.391,4.55,24.992,24.992,0,0,0-.925,4.026,74.139,74.139,0,0,1-1.886,8.438,119.578,119.578,0,0,0-3.5,12.843,18.18,18.18,0,0,1-1.063,3.477,66.667,66.667,0,0,0-3.339,11.446,15.814,15.814,0,0,0-.151,6.765,6.793,6.793,0,0,1,.044,1.137,52.061,52.061,0,0,0,.185,6.058,22.466,22.466,0,0,1,.04,2.332c.152,2.6.17,5.217.292,7.824.064,1.368.29,2.729.352,4.1a18.623,18.623,0,0,0,.611,4.411,3.255,3.255,0,0,1,.041.757c.086,2.05.139,4.1.268,6.151s.3,4.078.517,6.111c.226,2.156.3,4.322.685,6.472.362,2,.338,4.073.576,6.1.229,1.952.566,3.892.872,5.835.286,1.818.6,3.632.891,5.449.39,2.425.718,4.862,1.173,7.275.317,1.68.806,3.328,1.213,4.991.188.771.351,1.549.554,2.317.037.14.211.244.321.365a2.349,2.349,0,0,0,.17-.324c.655-1.9.446-3.807,1.087-5.715.092-.275.341-.646.431-.539a12.557,12.557,0,0,1,.627-3.79c.049-.237.416-.477.436-.236-.436-5.24,2.024-10.417,3.648-15.282a1.683,1.683,0,0,1,.3-.6,17.065,17.065,0,0,0,1.143-4l.266.079-.084-.266a6.349,6.349,0,0,1,.3-1.464c.551-1.2.822-2.488,1.306-3.708.494-1.246.867-2.541,1.291-3.815.079-.238.149-.479.223-.719l.266.079-.084-.266.813-2.864.269.327-.066-.5.577-2.1h.433l.09-.5-.265.3-.077.005c.332-.881.646-3.5,1-4.371.34-.833,1.619-7.5,2.494-9.082.045-.081.053-2,.142-1.975l-.084-.266c.419-.343.419-.343.325-1.082.089.026,1.474-4.095,1.562-4.068l-.084-.266.071-.574.266.079-.084-.266c.375-1.052.739-2.109,1.129-3.156.218-.585.477-1.154.718-1.73l.266.079-.084-.266a13,13,0,0,1,1.707-4.018,29.154,29.154,0,0,1,2.166-3.82,42.181,42.181,0,0,1,9.333-9.21c1.572-1.21,2.844-.941,4.558-.167a4.982,4.982,0,0,1,.851.46c.578.412,1.134.856,1.7,1.286a.845.845,0,0,0,.105.07,4,4,0,0,1,2.238,2.1c.476.792.929,1.6,1.431,2.375a26.042,26.042,0,0,1,1.787,4.139c.791,1.852,1.161,15.072,1.99,16.916a11.969,11.969,0,0,1,.674,3.046,17.29,17.29,0,0,0,.98,4.513,5.7,5.7,0,0,1,.183.861q.354,1.333.73,2.66c.057.2.216.4.208.591a17.781,17.781,0,0,0,.73,3.674c.275,1.639.52,3.285.856,4.911.328,1.588.768,3.152,1.13,4.733.186.814.3,1.644.467,2.463a6.061,6.061,0,0,0,.274.833c.357.986.774,1.954,1.066,2.958a18.434,18.434,0,0,0,2.508,5.323c.426.621.617.7,1.189.189a6.562,6.562,0,0,0,1.895-1.949c.228-.477.826-.764,1.195-1.19.515-.6,3.831-.473,4.308-1.1.35-.46,1.64-.8,2.13-1.113a1.85,1.85,0,0,0,.982-1.345c.373-2.059.889-4.091,1.336-6.136.965-4.416,1.855-8.85,2.9-13.246.785-3.3,1.774-6.544,2.66-9.817.546-2.019,1.037-4.053,1.612-6.064.4-1.408.9-2.787,1.362-4.179a2.351,2.351,0,0,0,.2-.594c.087-2.629,1.082-5.047,1.733-7.545.264-1.013.53-2.027.853-3.022.425-1.313.9-2.609,1.365-3.91.251-.71.506-1.419.771-2.124a6.55,6.55,0,0,1,.363-.809.906.906,0,0,1,1.591-.072c.257.613.711.738,1.214.929a2.844,2.844,0,0,1,2.13,2.349,1.784,1.784,0,0,0,.437.753,2.939,2.939,0,0,1,.549,2.616,1.867,1.867,0,0,0-.152.607,6.636,6.636,0,0,1-.172,3.212c.64,1.176.24,2.406.17,3.613s-.212,2.424-.322,3.636c-.222,2.457-.493,4.911-.651,7.372-.121,1.881-.5,3.726-.689,5.58-.173,1.654-.476,3.285-.68,4.93-.195,1.57-.647,3.107-.942,4.667-.271,1.433-.463,2.881-.728,4.315-.312,1.688-.7,3.363-.991,5.055-.487,2.8-.893,5.618-1.4,8.417-.4,2.225-.92,4.428-1.339,6.649-.458,2.429-.87,4.867-1.287,7.3-.283,1.653-.559,3.307-.8,4.967-.2,1.35-.283,2.718-.519,4.061-.669,3.793-1.331,7.589-2.108,11.361-.608,2.949-1.426,5.853-2.071,8.795-.592,2.7-1.049,5.429-1.619,8.133-.38,1.8-.858,3.581-1.287,5.372-.273,1.138-.524,2.282-.806,3.418a86.446,86.446,0,0,1-2.974,9.813,65.611,65.611,0,0,1-3.132,7.562,8.069,8.069,0,0,1-2.612,3.324,2.863,2.863,0,0,0-.709.7,6.911,6.911,0,0,1-1.947,1.74A6.6,6.6,0,0,0,315.2,257.5c-.431.45-.857.9-1.294,1.347-.086.088-.256.221-.312.191-.688-.366-1.072.206-1.541.486s-.906.587-1.353.888c-.068.046-.112.171-.174.176-1.944.145-2.955,1.884-4.536,2.638a15.187,15.187,0,0,1-1.609.531,12.335,12.335,0,0,0-1.348.519c-.215.1-.357.443-.56.47-.309.041-.747.8-.973-.087a3.515,3.515,0,0,0-1.808.161c-.786.37-1.646.579-2.464.885-.937.351-1.863.731-2.793,1.1-.142.056-.37.211-.4.175-.713-.757-1.449-.149-2.1.033a19.962,19.962,0,0,1-2.3.505c-.412.064-.755.2-.589-.461.061-.241-.091-.273-.289-.142a.986.986,0,0,1-.43.2,6.332,6.332,0,0,1-.842-.051,7.408,7.408,0,0,1,.4-.762,44.033,44.033,0,0,1,6.932-7.413c1.5-1.386,2.9-2.885,4.345-4.336a22.048,22.048,0,0,1,1.773-1.775,9.818,9.818,0,0,0,2.408-3.193,26.783,26.783,0,0,1,3-4.18,3.046,3.046,0,0,0,.525-.7c.855-2.144,2.118-4.09,3-6.218a10.032,10.032,0,0,0,.7-2.85,10.444,10.444,0,0,1,.52-1.929c.54-1.761,1.11-3.514,1.631-5.28.2-.68.28-1.394.454-2.083.637-2.512,1.338-5.01,1.916-7.535.262-1.144.618-2.257.9-3.391.5-2.032.919-4.085,1.377-6.128,1.878-8.386,3.984-16.719,5.155-25.243-3.486,1.906-10.15,2.911-13.8,1.33-7.22-3.131-11.686-11.049-13.7-18.317-2.619-9.454-3.426-30.88-4.688-40.589-.3-2.274-.587-5.837-2.108-7.68C288.211,119.2,288.01,119.616,287.924,119.41ZM68.5,90.391l-.083.27.27-.087.079-.266Zm-.761,1.268-.083.27.27-.087L68,91.575Zm1.451-1.844.269-.51.254-.507.254-.507.254-.507.055-.508-.26.329-.253.507-.254.507-.253.507L69,89.634l-.079.266Zm1.537-3.3.055-.508-.258.331-.064.5ZM298.2,257.18l-.622.449-.748.756c-.273.254-.563.494-.809.771-.072.081-.022.268-.027.407.153-.009.377.042.446-.037a6.7,6.7,0,0,0,.541-.81l.746-.753.6-.455.249-.27ZM220.42,192.107a1.7,1.7,0,0,0-.179.415c-.015.1.072.207.114.311a2.739,2.739,0,0,0,.238-.317.649.649,0,0,0,.031-.232l.064-.5Zm70.434,72.324c-.052.021-.136.028-.151.065-.149.362-.287.729-.428,1.094l.73-.83a2.188,2.188,0,0,0,.464-.378c.074-.1.031-.287.04-.435a3.824,3.824,0,0,0-.473.233C290.955,264.235,290.914,264.346,290.854,264.431Zm8.666-7.83,1.516-1.506c1.127-1.046,2.268-2.078,3.376-3.143.756-.726,1.486-1.48,2.181-2.261.148-.167.1-.506.136-.766-.252.074-.584.073-.743.235q-2.2,2.239-4.337,4.532a9.5,9.5,0,0,0-.764,1.072,2.664,2.664,0,0,0-1.49,1.511l-.249.27ZM31.921,79.92c.379-.341.737-.692.519-1.276a4.759,4.759,0,0,0,1.191-2.386c.02-.109-.131-.251-.2-.378-.1.061-.265.1-.3.187-.315.8-.608,1.6-.907,2.409l-.506,1.268-.265.758-.508,1.776-.761,2.283a6.425,6.425,0,0,0-.761,2.79,4.684,4.684,0,0,0-.438.888c-.486,1.9-.993,3.793-1.389,5.711a12.659,12.659,0,0,0-.7,3.55,3.763,3.763,0,0,0-.508,2.285l-.265,1.263a10.777,10.777,0,0,0-.495,3.555,4.031,4.031,0,0,0-.173,2.305c0,.062.1.121.147.181.049-.065.137-.127.141-.194.038-.705.062-1.412.09-2.118l.5-3.552c.274-.386.653-.748.278-1.275a4.105,4.105,0,0,0,.494-2.274,16.761,16.761,0,0,0,.7-2.255c.355-2.142,1.293-4.135,1.556-6.3.065-.536.18-1.066.272-1.6a7.787,7.787,0,0,0,.762-2.788,4.027,4.027,0,0,0,.761-2.283,2.357,2.357,0,0,0,.507-1.776ZM84.407,207.828l-.266-.079.084.266c-.325,1.188.084,2.369.055,3.555,0,.181.254.368.39.552a1.922,1.922,0,0,0,.207-.641c-.055-.991-.142-1.981-.243-2.968A3.273,3.273,0,0,0,84.407,207.828ZM55.655,89.706l.01.011c-.418.775-.841,1.547-1.251,2.325a16.285,16.285,0,0,0-.886,1.792c-.135.358,0,.822-.135,1.177A28.8,28.8,0,0,1,51.8,98.671a14.137,14.137,0,0,0-1.3,3.885,41.384,41.384,0,0,1-1.3,5.218q-.411,1.106-.8,2.223a.393.393,0,0,0,.032.337c.389.342.164.711.036,1.038a3.326,3.326,0,0,0-.155,1.849c.1.575.06.583.655.185l.438,0c.145-.15.384-.281.421-.454a5.969,5.969,0,0,1,1.519-2.527c1.684-2.033,3.311-4.112,4.976-6.161.948-1.166,1.993-2.259,2.875-3.472,1.477-2.029,2.865-4.123,4.278-6.2a38.281,38.281,0,0,0,3.745-5.938,14.91,14.91,0,0,0,1.213-3.145c.246-1.271.556-2.535.7-3.817a3.847,3.847,0,0,0-.946-2.672,1,1,0,0,0-.794-.257,7.291,7.291,0,0,0-3.128.806A4.415,4.415,0,0,1,63.108,80a2.477,2.477,0,0,0-2.013,1.659,2.722,2.722,0,0,1-.655,1.331,26.665,26.665,0,0,0-3.485,3.969,7.088,7.088,0,0,0-1.9,2.925l-.079.266.266-.084Zm190.079,10.439.087,0c0,1.049-.052,2.1.02,3.145a9.978,9.978,0,0,0,.438,1.76,15.456,15.456,0,0,0,.688-1.718c.21-.764.278-1.565.475-2.333.406-1.579.964-3.127,1.262-4.724.318-1.7.791-3.372,1.036-5.1.222-1.566.727-3.089,1.029-4.647.461-2.382.85-4.779,1.282-7.167.081-.447-.188-1.24.8-.922.031.01.166-.167.182-.268.337-2.06.722-4.105,1.205-6.141a29.906,29.906,0,0,0,.585-4.972,34.16,34.16,0,0,0,.053-4.587,31.221,31.221,0,0,1,.213-3.513c.068-1.515.1-3.033.125-4.55a4.317,4.317,0,0,0-.163-1.113c-.1-.38-.232-.226-.341.014a.889.889,0,0,1-.116.155c0-.084,0-.169-.011-.253-.082-.952-.18-1.9-.24-2.856a11.838,11.838,0,0,1,.024-1.393c.065-1.173.216-2.346.185-3.516a4.787,4.787,0,0,0-.546-1.786c-.334-.722-.839-1.367-1.154-2.1-.776-1.794-1.311-1.425-2.4-.276a.832.832,0,0,0-.168.189,36.266,36.266,0,0,0-2.124,4.681c-1.7,5.615-2.181,11.88-2.376,17.714-.163,4.88-.24,9.8-.24,14.682,0,5.857.426,11.717.426,17.557C245.977,97.462,245.82,98.8,245.734,100.145ZM65.39,38.528c-.113-.916-.186-1.795-.341-2.66-.109-.612-.481-.77-.978-.389a26.056,26.056,0,0,0-2.465,2.1,21.464,21.464,0,0,0-2.047,2.36,35.845,35.845,0,0,0-2.185,3.2c-.683,1.147-1.191,2.4-1.872,3.546-1.879,3.168-3.922,6.25-4.822,9.894a3.479,3.479,0,0,1-.159.344c-.364.98-.763,1.949-1.071,2.946a14.765,14.765,0,0,0-.413,2.082.321.321,0,0,0,.513.3,3.278,3.278,0,0,0,.568-.5c.766-.837,1.514-1.69,2.281-2.526,1.081-1.178,2.23-2.3,3.247-3.528,1.441-1.742,2.866-3.508,4.159-5.36a50,50,0,0,0,4.527-7.993A11.805,11.805,0,0,0,65.39,38.528ZM25.505,110.155h.008c0-.673.007-1.346-.009-2.019,0-.081-.125-.16-.192-.24-.043.069-.122.138-.123.207-.01,1.346-.014,2.691-.005,4.037,0,.079.124.157.19.236.044-.068.124-.135.125-.2C25.509,111.5,25.505,110.827,25.505,110.155ZM309.711,245.206l-.07-.606c-.173.1-.4.162-.509.3-.6.8-1.179,1.613-1.731,2.442-.056.084.075.339.2.44a.482.482,0,0,0,.436-.04C308.6,246.927,309.133,246.09,309.711,245.206Zm-14.455,15.418c-.006-.219.022-.339-.024-.419a.272.272,0,0,0-.251-.057,8.8,8.8,0,0,0-.756.772c-.02.023.134.19.207.29ZM254.933,50.839a4.975,4.975,0,0,0,.076.529c.016.066.1.115.152.171.03-.03.085-.06.085-.089,0-.361-.01-.723-.018-1.084-.06.007-.164,0-.172.023C255,50.543,254.967,50.7,254.933,50.839Zm.418-2.333a2.068,2.068,0,0,0-.066-.356c-.02-.056-.1-.1-.159-.13-.009-.005-.08.051-.08.08q-.01.406,0,.813c0,.029.071.085.081.079.06-.035.14-.074.16-.13A2.051,2.051,0,0,0,255.35,48.506ZM71.366,84.943l-.1-.207c-.033.026-.093.052-.094.079a1.085,1.085,0,0,0,.035.219Zm239.059,158.72-.048-.308c-.053.006-.141,0-.153.022a1.581,1.581,0,0,0-.079.277ZM265.97,165.928a1.154,1.154,0,0,0-.051.225c0,.028.056.058.086.087a.67.67,0,0,0,.11-.2C266.12,166.013,266.024,165.968,265.97,165.928Zm-5.038,15.565.083-.071c-.024-.028-.046-.075-.072-.077a.1.1,0,0,0-.076.066C260.865,181.437,260.909,181.465,260.932,181.493Zm28.83,84.6-.04-.14-.142.036c.013.047.014.116.044.134S289.715,266.1,289.762,266.09Zm2.491-3.013-.142.036.04.14c.047-.012.118-.01.136-.04S292.267,263.124,292.254,263.077Zm1.531-1.371-.04-.14c-.047.012-.118.01-.136.04a.134.134,0,0,0,.037.13C293.677,261.753,293.737,261.718,293.784,261.706ZM293,260.688l.142-.036c-.013-.047-.014-.116-.044-.134a.135.135,0,0,0-.131.033C292.949,260.581,292.986,260.641,293,260.688Zm-36.1-63.519-.083.071.071.083c.028-.024.075-.046.077-.072S256.928,197.2,256.9,197.168Zm6.325-23.185-.083.071.071.083c.027-.024.075-.046.077-.072S263.252,174.011,263.228,173.983Zm.507-1.522-.083.071.071.083c.028-.024.075-.046.077-.072S263.759,172.489,263.736,172.462ZM57.381,170.77l-.071-.083c-.028.024-.075.046-.077.072a.1.1,0,0,0,.066.076C57.324,170.837,57.353,170.794,57.381,170.77Zm137.661-.338-.083.071.071.083c.028-.024.075-.046.077-.072S195.065,170.46,195.042,170.432Zm-1.015-7.1-.083.071.071.083c.028-.024.075-.046.077-.072S194.051,163.358,194.027,163.33ZM276.192,131.3l-.083.071.071.083c.028-.024.075-.046.077-.072S276.216,131.327,276.192,131.3Zm-.184.845-.071-.083c-.027.024-.075.046-.077.072a.1.1,0,0,0,.066.076C275.952,132.211,275.981,132.168,276.008,132.144Z" transform="translate(-24.261 -18.502)"/><path d="M209.134,84.3a4.862,4.862,0,0,0,1.115-.213,3.251,3.251,0,0,1,3.047.419,1.892,1.892,0,0,1,.615.654,9.711,9.711,0,0,1,1.427,4.634c.132,2.068.833,4.1.344,6.219-.386,1.675-.837,2.284-2.484,2.586a4.847,4.847,0,0,1-3.858-.542c-.2-.141-.52-.325-.525-.5a2.474,2.474,0,0,0-1.632-2.053c-2.072-1.06-1.9-2.77-1.637-4.572.213-1.483.527-2.957.649-4.447.14-1.71.249-1.923,1.975-2.23.31-.055.623-.095.935-.142Z" transform="translate(-24.261 -18.502)"/><path d="M533.32,204.327l.163-.407-.124.435Z" transform="translate(-24.261 -18.502)"/><path d="M650.519,218.83l.53-.525.01.011-.513.54Z" transform="translate(-24.261 -18.502)"/><path d="M585.645,205.516l-.072-.048.06-.083.1.08Z" transform="translate(-24.261 -18.502)"/><path d="M221.167,199.045c-.028.006-.062.025-.083.015s-.047-.047-.069-.072l.126-.039Z" transform="translate(-24.261 -18.502)"/><path d="M219.016,197.026l.073.22-.105-.193Z" transform="translate(-24.261 -18.502)"/><path d="M218.744,198.552l.089-.219-.055.246Z" transform="translate(-24.261 -18.502)"/><path d="M218.777,198.578l-.16.152.127-.178Z" transform="translate(-24.261 -18.502)"/><path d="M603.1,59.783l-.073-.22.105.193Z" transform="translate(-24.261 -18.502)"/><path d="M211.639,218.075l.09-.214-.079.225Z" transform="translate(-24.261 -18.502)"/><polygon points="29.602 158.984 29.572 158.938 29.613 158.974 29.602 158.984"/><path d="M650.031,219.31l.255-.254.026.027-.253.253Z" transform="translate(-24.261 -18.502)"/><path d="M650.546,218.856l-.234.227-.026-.027.233-.226Z" transform="translate(-24.261 -18.502)"/><polygon points="626.788 199.804 626.834 199.774 626.798 199.815 626.788 199.804"/><polygon points="187.389 199.584 187.342 199.614 187.378 199.574 187.389 199.584"/><polygon points="441.879 196.76 441.925 196.73 441.889 196.771 441.879 196.76"/><polygon points="154.177 183.333 154.207 183.38 154.166 183.343 154.177 183.333"/><polygon points="637.948 180.78 637.995 180.75 637.958 180.791 637.948 180.78"/><path d="M159.665,105.187l.224,0-.018.03a.127.127,0,0,0-.187,0Z" transform="translate(-24.261 -18.502)"/><path d="M54.125,176.964l0-.224.03.018a.127.127,0,0,0,0,.187Z" transform="translate(-24.261 -18.502)"/><polygon points="450.25 122.983 450.204 123.013 450.24 122.972 450.25 122.983"/><path d="M636.859,156.931l.224,0-.018.03a.127.127,0,0,0-.187,0Z" transform="translate(-24.261 -18.502)"/><path d="M49.206,113.22l-.042,0Z" transform="translate(-24.261 -18.502)"/><polygon points="31.394 71.205 31.44 71.175 31.404 71.215 31.394 71.205"/></g><path d="M383.3,122.628a4.462,4.462,0,0,1-.7-1.1c-.2-.359-.707-.708-.8-1.06-.011-.039-.092-.08-.132-.12-.175-.173-.373-.345-.516-.517-.177-.213-.286-.423-.483-.632,0,0-.307-.047-.242-.06s.135-.039.2-.058c-.108-.022-.213-.047-.32-.065a1.025,1.025,0,0,0-.174-.007c-.082,0-.137-.014-.1-.037.1-.062-.036-.072-.189-.095-.291-.042-.568-.077-.842-.108a1.363,1.363,0,0,1-.7-.15,1.1,1.1,0,0,0-.141-.009c-.321-.024-.632-.045-.937-.07-.266-.022-.527-.058-.779-.068a1.794,1.794,0,0,1-.5-.108c.044-.128-.153-.063-.236-.079a1.71,1.71,0,0,0-.2.021c-.133,0-.266-.015-.4-.026-.154-.013-.3-.037-.457-.039a8.418,8.418,0,0,1-1.5.056.609.609,0,0,0-.075.012c-.163.012-.33.026-.5.036s-.389.059-.466-.021a.407.407,0,0,0-.117.008l-.634.1c.017,0-1.122.5-1.221.577a19.5,19.5,0,0,0-1.923,2.113c-.318.417-.414.848-.714,1.279-.162.227-.069.469-.411.682-.544.336-.314.688-.6,1.035a7.017,7.017,0,0,0-.24,2.77l.566,3.358a2.762,2.762,0,0,1,.748.794c.08.159.319.313.408.471.193.34.336.678.557,1.011a21.8,21.8,0,0,0,1.636,2.111c.032.037-.01.075-.008.112,0,.021-.011.051.032.061.53.133,1,.3,1.534.4a13.594,13.594,0,0,1,2.008.517c.731.258,1.58.28,2.221.459a4.531,4.531,0,0,0,1.132.058,17.573,17.573,0,0,1,2.121-.159.976.976,0,0,0,.258-.04c.462-.136,1.028-.26,1.463-.41.608-.211,1.111-.416,1.206-.678a4.182,4.182,0,0,1,.887-1.165,5.188,5.188,0,0,0,.718-.945,12.531,12.531,0,0,0,1.286-2.947,2.117,2.117,0,0,0,.037-.4S383.874,123.227,383.3,122.628Z" transform="translate(-24.261 -18.502)"/></svg>